<svg xmlns="http://www.w3.org/2000/svg" width="25.441" height="54.079" viewBox="0 0 25.441 54.079">
  <g id="product_ico9" transform="translate(0.505 0.5)" opacity="0.85">
    <rect id="사각형_211" data-name="사각형 211" width="3.818" height="1.909" rx="0.954" transform="translate(24.436 12.417) rotate(90)" fill="none" stroke="#fff" stroke-linecap="round" stroke-linejoin="round" stroke-width="1"/>
    <path id="패스_11571" data-name="패스 11571" d="M-1966.1-994.918a.45.45,0,0,0,.305.633c.88.207,3.408.569,10.327.569h.514c6.9,0,9.406-.36,10.277-.567a.451.451,0,0,0,.3-.633c-.226-.463-.835-1.086-2.475-1.086h-16.778C-1965.263-996-1965.873-995.38-1966.1-994.918Z" transform="translate(1966.767 996.001)" fill="none" stroke="#fff" stroke-linecap="round" stroke-linejoin="round" stroke-width="1"/>
    <path id="패스_11572" data-name="패스 11572" d="M-1962.685-979.518h-.513c-9.684,0-11.2-1.143-11.2-1.143l-.1,6.716s1.615.71,11.3.71h.513c9.684,0,11.244-.71,11.244-.71l-.069-6.716S-1953-979.518-1962.685-979.518Zm-2.328,4.547a.323.323,0,0,1-.324.323,59.914,59.914,0,0,1-6.813-.357.322.322,0,0,1-.279-.371l.416-2.615a.322.322,0,0,1,.348-.27c1.47.14,3.548.2,4.989.231a1.7,1.7,0,0,1,1.664,1.7Zm11.23-.034a59.912,59.912,0,0,1-6.813.357.323.323,0,0,1-.324-.323v-1.364a1.7,1.7,0,0,1,1.664-1.7c1.441-.028,3.519-.09,4.989-.231a.322.322,0,0,1,.348.27l.416,2.615A.322.322,0,0,1-1953.783-975.006Z" transform="translate(1974.498 981.804)" fill="#fff" stroke="rgba(0,0,0,0)" stroke-width="1"/>
    <path id="패스_11573" data-name="패스 11573" d="M-1945.352-890.518s-1.03.71-10.715.71h-.513c-9.684,0-10.767-.71-10.767-.71v34.86s1.083,1.843,10.767,1.843h.513c9.684,0,10.715-1.843,10.715-1.843Z" transform="translate(1967.88 898.377)" fill="none" stroke="#fff" stroke-linecap="round" stroke-linejoin="round" stroke-width="1"/>
    <g id="그룹_14254" data-name="그룹 14254" transform="translate(2.442 43.687)">
      <path id="패스_11574" data-name="패스 11574" d="M-1941.722-409.617v9.142a1.254,1.254,0,0,0,1.458,0l.845-8.66Z" transform="translate(1941.722 409.617)" fill="none" stroke="#fff" stroke-linecap="round" stroke-linejoin="round" stroke-width="1"/>
      <path id="패스_11575" data-name="패스 11575" d="M-1726.355-409.617v9.142a1.253,1.253,0,0,1-1.458,0l-.845-8.66Z" transform="translate(1744.532 409.617)" fill="none" stroke="#fff" stroke-linecap="round" stroke-linejoin="round" stroke-width="1"/>
    </g>
  </g>
</svg>
