<svg xmlns="http://www.w3.org/2000/svg" width="959.778" height="126.6" viewBox="0 0 959.778 126.6">
  <path id="패스_11380" data-name="패스 11380" d="M-395.925-40.2c-18,27.9-37.2,7.8-53.55,5.25-18-2.85-27.6,9-28.05,25.05-1.05-13.95,5.55-28.65,30.3-29.7,25.65-1.05,51.6-13.5,51.6-38.55,0-14.7-11.7-28.5-46.05-28.5-20.1,0-33.75,10.35-33.75,25.8a20.146,20.146,0,0,0,11.55,18.45,17.951,17.951,0,0,0,7.05,1.5,15.455,15.455,0,0,0,6.9-1.5,16.923,16.923,0,0,0,10.05-15.45,17.029,17.029,0,0,0-16.95-16.95c-5.4,0-5.25-10.2,11.25-10.2,5.1,0,19.95,3.45,19.95,26.85-.6,18.3-13.35,30.15-32.25,36.3-33,10.8-19.05,43.5-19.05,43.5.3-.75,1.05-2.1,1.05-2.1,14.4-22.65,35.1,2.1,55.65,2.1,18.75,0,26.1-12.45,26.4-41.1Zm88.5,5.1h-9.6v-30s-30.15,9.6-30.15,30h-32.25c45.45-15.75,56.25-49.5,50.4-69.9h-38.55c14.25,33-9.6,55.2-24,69.9v1.65h44.4v19.8c-.15,7.5-1.5,12-9.6,12V0h49.35V-1.65c-8.1,0-9.3-4.5-9.6-12v-19.8h9.6Zm21.6,8.7a14.117,14.117,0,0,0-14.1,14.25,13.926,13.926,0,0,0,14.1,13.8,13.71,13.71,0,0,0,6.45-1.2c-1.5,3.75-8.1,13.35-14.1,17.85l.9,1.65c6.9-4.35,20.85-18.15,20.85-32.1A14.117,14.117,0,0,0-285.825-26.4Zm55.35-11.4c12.75,0,18.9-9,20.85-17.55v3.75c0,13.8-1.05,50.55-21.9,50.55-12.15,0-16.95-7.2-9.45-7.2,7.65,0,13.65-5.4,13.65-12.9a13.572,13.572,0,0,0-13.65-13.5c-9,0-15.45,7.95-15.45,15.45,0,10.2,9.45,20.85,27.75,20.85,27.45,0,50.4-23.4,50.4-58.95,0-32.55-21.15-49.35-46.35-49.35-20.25,0-41.1,11.85-41.1,37.35C-265.725-48.9-247.125-37.8-230.475-37.8Zm6.6-67.2c8.4,0,14.25,7.65,14.25,33.9,0,13.05-1.05,22.95-9.75,28.2a10.892,10.892,0,0,1-5.4,1.65c-4.2,0-11.7-1.5-11.7-29.1C-236.475-102.75-228.525-105-223.875-105Zm95.85-1.65c-37.65.15-45.75,34.2-45.75,54.15s8.1,54,45.75,54.15c37.65-.15,45.75-34.2,45.75-54.15S-90.375-106.5-128.025-106.65Zm0,106.65c-14.1,0-14.25-32.25-14.25-52.5s.15-52.5,14.25-52.5,14.25,32.25,14.25,52.5S-113.925,0-128.025,0Zm91.5-13.65V-105h-1.95c-2.85,4.5-8.25,8.1-13.2,10.8-5.85,3.15-14.25,5.1-22.8,5.7h-1.8v1.8c7.8,0,9.3,4.35,9.45,11.7v61.35c-.15,7.5-1.5,12-9.45,12V0h49.2V-1.65C-35.025-1.65-36.375-6.15-36.525-13.65Zm161.25-89.55V-105h-44.7l-24.9,69-25.65-69h-49.05v1.8c13.5,0,15.6,7.35,15.75,17.85v65.7C-3.975-9.15-6.075-1.8-19.575-1.8V0h34.5V-1.8C1.425-1.8-.525-9.15-.825-19.65c0,0,.15-68.4.15-69.75L32.475,0h12.75l33-91.35V-21.6c0,11.55-1.35,19.8-15.6,19.8V0h62.1V-1.8c-14.25,0-15.6-8.25-15.6-19.8V-83.4C109.125-94.95,110.475-103.2,124.725-103.2Zm67.95,0V-105h-61.95v1.8c14.25,0,15.6,8.25,15.6,19.8v61.8c0,11.55-1.35,19.8-15.6,19.8V0h61.95V-1.8c-14.1,0-15.45-8.25-15.45-19.8V-83.4C177.225-94.95,178.575-103.2,192.675-103.2Zm94.05,59.25c-1.65,23.85-6,42.15-35.7,42.15h-9V-83.4c0-11.55,1.35-19.8,15.6-19.8V-105h-61.95v1.8c14.25,0,15.6,8.25,15.6,19.8v61.8c0,11.55-1.35,19.8-15.6,19.8V0h93.15V-43.95Zm98.4,0c-1.65,23.85-6,42.15-35.7,42.15h-8.85V-54.45h4.8c13.5.15,18.75,8.25,20.1,22.05h2.1V-79.5h-2.1c-1.35,13.8-6.6,21.75-20.1,22.05h-4.8V-103.2h6.45c29.55,0,34.05,18.15,35.7,42.15h2.1V-105h-90.75v1.8c14.25,0,15.6,8.25,15.6,19.8v61.8c0,11.55-1.35,19.8-15.6,19.8V0h93.15V-43.95Zm61.95-23.55-6.3-1.5c-5.1-1.2-23.7-3.15-23.7-19.05,0-11.1,9.9-16.95,18.45-16.95,24.15,0,34.5,23.1,34.5,35.85h1.65v-37.5h-1.8c-.45,5.4-2.55,11.7-15.15,5.7-3.3-1.65-10.5-5.7-20.55-5.7-14.55,0-39.45,5.85-39.45,35.25,0,19.35,15.45,27.15,29.7,31.05l7.65,2.1c8.85,2.4,24.9,4.95,24.9,20.4,0,8.85-7.95,17.85-21.9,17.85-7.65,0-14.1-1.65-19.35-4.65-13.95-6.75-19.65-29.4-19.65-39.3h-2.1V1.65h2.1c.45-5.25,2.25-12.3,14.85-6.3l4.8,2.25a60.272,60.272,0,0,0,21.75,4.05c12.15,0,42.45-4.35,42.45-36.75C479.925-61.05,455.025-65.7,447.075-67.5Z" transform="translate(479.853 106.65)" fill="#fff"/>
</svg>
