<svg xmlns="http://www.w3.org/2000/svg" width="26.785" height="54.468" viewBox="0 0 26.785 54.468">
  <g id="product_ico3" transform="translate(0.5 0.5)" opacity="0.85">
    <g id="그룹_14165" data-name="그룹 14165">
      <rect id="사각형_172" data-name="사각형 172" width="24.176" height="2.719" rx="1.36" fill="none" stroke="#fff" stroke-linecap="round" stroke-miterlimit="10" stroke-width="1"/>
      <path id="패스_11439" data-name="패스 11439" d="M-1970.212,217.66a.648.648,0,0,0,.041.241l.431,1.161a.65.65,0,0,0,.609.424h20.571a.65.65,0,0,0,.609-.424l.431-1.161a.65.65,0,0,0,.041-.241" transform="translate(1970.934 -214.941)" fill="none" stroke="#fff" stroke-linecap="round" stroke-miterlimit="10" stroke-width="1"/>
      <path id="패스_11440" data-name="패스 11440" d="M-1944.674,242.174H-1954.9l2.128,25.96h16.2l2.128-25.96Z" transform="translate(1956.762 -237.629)" fill="none" stroke="#fff" stroke-linecap="round" stroke-miterlimit="10" stroke-width="1"/>
      <path id="패스_11441" data-name="패스 11441" d="M-1690.9,509.291v.728a4.809,4.809,0,0,1-.724,2.539l-3.873,6.23" transform="translate(1716.689 -484.845)" fill="none" stroke="#fff" stroke-linecap="round" stroke-miterlimit="10" stroke-width="1"/>
      <path id="패스_11442" data-name="패스 11442" d="M-1680.41,243.13l1.791,1.526a4.8,4.8,0,0,1,1.681,3.651v10.986" transform="translate(1702.723 -238.513)" fill="none" stroke="#fff" stroke-linecap="round" stroke-miterlimit="10" stroke-width="1"/>
      <path id="패스_11443" data-name="패스 11443" d="M-1708.164,291.459a4.8,4.8,0,0,1,1.272,3.258v12.591a4.809,4.809,0,0,1-.724,2.539l-2.458,3.954" transform="translate(1730.177 -283.242)" fill="none" stroke="#fff" stroke-linecap="round" stroke-miterlimit="10" stroke-width="1"/>
      <path id="패스_11444" data-name="패스 11444" d="M-1928.078,597.564l-1.025-6.338a.724.724,0,0,0-.714-.608h-15.856a.724.724,0,0,0-.715.608l-1.025,6.338" transform="translate(1949.834 -560.113)" fill="none" stroke="#fff" stroke-linecap="round" stroke-miterlimit="10" stroke-width="1"/>
      <path id="패스_11445" data-name="패스 11445" d="M-1968.561,686.943v-2.029a1.059,1.059,0,0,1,1.059-1.059h20.369a1.059,1.059,0,0,1,1.059,1.059v13.9a1.059,1.059,0,0,1-1.059,1.059H-1967.5a1.059,1.059,0,0,1-1.059-1.059v-8.155" transform="translate(1969.406 -646.404)" fill="none" stroke="#fff" stroke-linecap="round" stroke-miterlimit="10" stroke-width="1"/>
      <path id="패스_11446" data-name="패스 11446" d="M-1922.924,734.192h-7.405a1.069,1.069,0,0,0-1.061,1.2l.81,6.378a1.069,1.069,0,0,0,1.061.935h13.191a1.069,1.069,0,0,0,1.061-.935l.81-6.378a1.069,1.069,0,0,0-1.061-1.2Z" transform="translate(1935.012 -692.99)" fill="none" stroke="#fff" stroke-linecap="round" stroke-miterlimit="10" stroke-width="1"/>
    </g>
    <line id="선_123" data-name="선 123" y2="15.46" transform="translate(12.088 9.811)" fill="none" stroke="#fff" stroke-linecap="round" stroke-miterlimit="10" stroke-width="1"/>
    <line id="선_124" data-name="선 124" x2="3.072" transform="translate(14.944 9.811)" fill="none" stroke="#fff" stroke-linecap="round" stroke-miterlimit="10" stroke-width="1"/>
    <line id="선_125" data-name="선 125" x2="3.072" transform="translate(14.944 17.541)" fill="none" stroke="#fff" stroke-linecap="round" stroke-miterlimit="10" stroke-width="1"/>
    <line id="선_126" data-name="선 126" x2="1.536" transform="translate(16.48 13.676)" fill="none" stroke="#fff" stroke-linecap="round" stroke-miterlimit="10" stroke-width="1"/>
    <line id="선_127" data-name="선 127" x2="1.536" transform="translate(16.48 21.406)" fill="none" stroke="#fff" stroke-linecap="round" stroke-miterlimit="10" stroke-width="1"/>
    <line id="선_128" data-name="선 128" x2="3.072" transform="translate(14.944 25.271)" fill="none" stroke="#fff" stroke-linecap="round" stroke-miterlimit="10" stroke-width="1"/>
  </g>
</svg>
