<svg xmlns="http://www.w3.org/2000/svg" xmlns:xlink="http://www.w3.org/1999/xlink" width="43.843" height="35.364" viewBox="0 0 43.843 35.364">
  <defs>
    <clipPath id="clip-path">
      <rect id="사각형_217" data-name="사각형 217" width="43.843" height="35.364" fill="none" stroke="#707070" stroke-width="1"/>
    </clipPath>
  </defs>
  <g id="product_ico7" transform="translate(-228.242 -279.883)" opacity="0.85">
    <g id="그룹_14278" data-name="그룹 14278" transform="translate(228.242 279.883)">
      <g id="그룹_14277" data-name="그룹 14277" transform="translate(0 0)" clip-path="url(#clip-path)">
        <path id="패스_11577" data-name="패스 11577" d="M435.584,288.6c3.274,0,6.547.5,7.14.405a1.05,1.05,0,0,0,.727-.61.284.284,0,0,0-.128-.385c-.5-.239-2.165-.625-7.739-.625s-7.241.386-7.739.625a.284.284,0,0,0-.128.385,1.05,1.05,0,0,0,.727.61C429.037,289.1,432.311,288.6,435.584,288.6Z" transform="translate(-413.663 -286.856)" fill="none" stroke="#fff" stroke-linecap="round" stroke-linejoin="round" stroke-width="1"/>
        <path id="패스_11578" data-name="패스 11578" d="M424.679,296.278c-.814.725-.128,1.968-.128,1.968a1.05,1.05,0,0,0,.727.61c.592.094,3.866-.405,7.14-.405s6.547.5,7.14.405a1.051,1.051,0,0,0,.727-.61s.687-1.243-.128-1.968" transform="translate(-410.496 -295.125)" fill="none" stroke="#fff" stroke-linecap="round" stroke-linejoin="round" stroke-width="1"/>
        <path id="패스_11579" data-name="패스 11579" d="M365.721,338.535l.08-2.334A3.2,3.2,0,0,1,369,333.115H386.39a3.2,3.2,0,0,1,3.194,3.086l.384,11.126a1.039,1.039,0,0,1-1.039,1.075H366.456a1.039,1.039,0,0,1-1.039-1.075l.2-5.808" transform="translate(-355.771 -329.372)" fill="none" stroke="#fff" stroke-linecap="round" stroke-linejoin="round" stroke-width="1"/>
        <path id="패스_11580" data-name="패스 11580" d="M276.94,350.3h-1.6s-5.144,1.451-6.267,10.29h6.789" transform="translate(-266.204 -345.35)" fill="none" stroke="#fff" stroke-linecap="round" stroke-linejoin="round" stroke-width="1"/>
        <line id="선_169" data-name="선 169" x2="5.339" transform="translate(4.321 13.605)" fill="none" stroke="#fff" stroke-linecap="round" stroke-linejoin="round" stroke-width="1"/>
        <path id="패스_11581" data-name="패스 11581" d="M699.068,350.3h1.6s5.144,1.451,6.267,10.29h-6.789" transform="translate(-665.961 -345.35)" fill="none" stroke="#fff" stroke-linecap="round" stroke-linejoin="round" stroke-width="1"/>
        <line id="선_170" data-name="선 170" x1="5.339" transform="translate(34.183 13.605)" fill="none" stroke="#fff" stroke-linecap="round" stroke-linejoin="round" stroke-width="1"/>
        <path id="패스_11582" data-name="패스 11582" d="M244.836,503.277H236.4a.657.657,0,0,1-.657-.657v-.669a.657.657,0,0,1,.657-.657h8.438Z" transform="translate(-235.214 -485.726)" fill="none" stroke="#fff" stroke-linecap="round" stroke-linejoin="round" stroke-width="1"/>
        <path id="패스_11583" data-name="패스 11583" d="M714.913,501.3h8.438a.657.657,0,0,1,.657.657v.669a.657.657,0,0,1-.657.657h-8.438Z" transform="translate(-680.692 -485.727)" fill="none" stroke="#fff" stroke-linecap="round" stroke-linejoin="round" stroke-width="1"/>
        <path id="패스_11584" data-name="패스 11584" d="M702.487,530.967h7.732a.61.61,0,0,0,.61-.61v-.868" transform="translate(-669.14 -511.938)" fill="none" stroke="#fff" stroke-linecap="round" stroke-linejoin="round" stroke-width="1"/>
        <path id="패스_11585" data-name="패스 11585" d="M267.219,530.967h-7.732a.61.61,0,0,1-.61-.61v-.868" transform="translate(-256.723 -511.938)" fill="none" stroke="#fff" stroke-linecap="round" stroke-linejoin="round" stroke-width="1"/>
        <path id="패스_11586" data-name="패스 11586" d="M301.474,554.392v8.823a1.309,1.309,0,0,1-.9,1.248,10.523,10.523,0,0,1-3.222.405h-30.8a10.522,10.522,0,0,1-3.222-.405,1.308,1.308,0,0,1-.9-1.248v-12.7" transform="translate(-260.035 -531.481)" fill="none" stroke="#fff" stroke-linecap="round" stroke-linejoin="round" stroke-width="1"/>
        <path id="패스_11587" data-name="패스 11587" d="M379.8,562.578H363.319a4.5,4.5,0,0,1-4.5-4.5v-7.568H384.3v7.568A4.5,4.5,0,0,1,379.8,562.578Z" transform="translate(-349.639 -531.482)" fill="none" stroke="#fff" stroke-linecap="round" stroke-linejoin="round" stroke-width="1"/>
        <path id="패스_11588" data-name="패스 11588" d="M399.353,583.295H384.881a3.949,3.949,0,0,1-3.949-3.949v-2.9H403.3v2.9A3.949,3.949,0,0,1,399.353,583.295Z" transform="translate(-370.195 -555.596)" fill="none" stroke="#fff" stroke-linecap="round" stroke-linejoin="round" stroke-width="1"/>
        <path id="패스_11589" data-name="패스 11589" d="M394.443,452.625H407.8a3.827,3.827,0,0,1,3.827,3.827v3.018H390.616v-3.018A3.827,3.827,0,0,1,394.443,452.625Z" transform="translate(-379.198 -440.478)" fill="none" stroke="#fff" stroke-linecap="round" stroke-linejoin="round" stroke-width="1"/>
        <path id="패스_11590" data-name="패스 11590" d="M526.042,635.516h-2.505a.646.646,0,0,1,0-1.292h2.505a.646.646,0,1,1,0,1.292" transform="translate(-502.172 -609.308)" fill="#fff" stroke="#707070" stroke-width="1"/>
        <path id="패스_11591" data-name="패스 11591" d="M411.649,635.516h-2.505a.646.646,0,1,1,0-1.292h2.505a.646.646,0,1,1,0,1.292" transform="translate(-395.822 -609.308)" fill="#fff" stroke="#707070" stroke-width="1"/>
        <path id="패스_11592" data-name="패스 11592" d="M586.2,634.87a.646.646,0,1,1,.646.646.646.646,0,0,1-.646-.646" transform="translate(-561.027 -609.308)" fill="#fff" stroke="#707070" stroke-width="1"/>
        <path id="사각형_216" data-name="사각형 216" d="M1.333,0H5.074A1.333,1.333,0,0,1,6.407,1.333v0A1.333,1.333,0,0,1,5.074,2.666H1.333A1.333,1.333,0,0,1,0,1.333v0A1.333,1.333,0,0,1,1.333,0Z" transform="translate(18.718 20.853)" fill="none" stroke="#fff" stroke-linecap="round" stroke-linejoin="round" stroke-width="1"/>
        <path id="패스_11593" data-name="패스 11593" d="M344.632,756.141h-1.72a.847.847,0,0,1-.847-.847v-.6h3.414v.6A.847.847,0,0,1,344.632,756.141Z" transform="translate(-334.061 -721.304)" fill="none" stroke="#fff" stroke-linecap="round" stroke-linejoin="round" stroke-width="1"/>
        <path id="패스_11594" data-name="패스 11594" d="M691.95,756.141h-1.72a.847.847,0,0,1-.847-.847v-.6H692.8v.6A.847.847,0,0,1,691.95,756.141Z" transform="translate(-656.957 -721.304)" fill="none" stroke="#fff" stroke-linecap="round" stroke-linejoin="round" stroke-width="1"/>
      </g>
    </g>
  </g>
</svg>
