<svg xmlns="http://www.w3.org/2000/svg" width="36.916" height="40.209" viewBox="0 0 36.916 40.209">
  <g id="product_ico12" transform="translate(0.5 0.54)" opacity="0.85">
    <g id="그룹_14251" data-name="그룹 14251" opacity="0.85">
      <path id="패스_11565" data-name="패스 11565" d="M-874.568-899.974a16.286,16.286,0,0,1,7.2-.454,58.466,58.466,0,0,1,6.663,1.995c3.071,1.009,6.129,2.058,9.182,3.119q1.846.642,3.69,1.291c1.362.479,2.863.8,3.832,1.952,1.923,2.291-3.19,3.693-4.682,3.834a11.574,11.574,0,0,1-4.99-.379c-1.154-.412-22.262-8.632-22.262-8.632S-878.4-898.482-874.568-899.974Z" transform="translate(877.936 900.66)" fill="none" stroke="#fff" stroke-linecap="round" stroke-linejoin="round" stroke-width="1"/>
      <path id="패스_11566" data-name="패스 11566" d="M-781.6-851.7c-4.008-1.528-14.179-5.508-18.726-7.293" transform="translate(807.238 862.094)" fill="none" stroke="#fff" stroke-linecap="round" stroke-linejoin="round" stroke-width="1"/>
      <path id="패스_11567" data-name="패스 11567" d="M-892.226-825.792c-.264,3.618-1.093,15.292-.873,16.461.26,1.385.519,3.5,2.812,4.8s17.913,10.86,19.644,11.423c1.3.423,5.019,1.428,8.091.476,2.909-.9,4.76-2.38,5.192-5.538s-.173-9.241-.3-11.327-1.175-11.9-1.175-11.9" transform="translate(893.136 831.37)" fill="none" stroke="#fff" stroke-linecap="round" stroke-linejoin="round" stroke-width="1"/>
      <path id="패스_11568" data-name="패스 11568" d="M-455.731-432.987a21.823,21.823,0,0,1-.325,3.1" transform="translate(488.619 467.83)" fill="none" stroke="#fff" stroke-linecap="round" stroke-linejoin="round" stroke-width="1"/>
      <path id="패스_11569" data-name="패스 11569" d="M-463.4-737.155s.172,2.058.37,5.042" transform="translate(495.415 749.336)" fill="none" stroke="#fff" stroke-linecap="round" stroke-linejoin="round" stroke-width="1"/>
      <path id="패스_11570" data-name="패스 11570" d="M-456.152-632.886c.231,3.955.44,8.722.4,12.542" transform="translate(488.708 652.836)" fill="none" stroke="#fff" stroke-linecap="round" stroke-linejoin="round" stroke-width="1"/>
    </g>
  </g>
</svg>
