<svg xmlns="http://www.w3.org/2000/svg" width="28.896" height="57.226" viewBox="0 0 28.896 57.226">
  <g id="product_ico4" transform="translate(0.5 0.5)" opacity="0.85">
    <path id="패스_11487" data-name="패스 11487" d="M-3084.8,166.124v-2.006a1.462,1.462,0,0,1,1.462-1.462h9.711a1.462,1.462,0,0,1,1.462,1.462v22.42a1.462,1.462,0,0,1-1.462,1.462h-9.711a1.462,1.462,0,0,1-1.462-1.462V169.3" transform="translate(3089.646 -162.656)" fill="none" stroke="#fff" stroke-linecap="round" stroke-linejoin="round" stroke-width="1"/>
    <path id="패스_11488" data-name="패스 11488" d="M-2902.4,181.423h2.1a.88.88,0,0,1,.88.88v22.186a.88.88,0,0,1-.88.88h-3.087" transform="translate(2921.749 -180.025)" fill="none" stroke="#fff" stroke-linecap="round" stroke-linejoin="round" stroke-width="1"/>
    <path id="패스_11489" data-name="패스 11489" d="M-3145.894,205.37h-3.087a.88.88,0,0,1-.88-.88V182.3a.88.88,0,0,1,.88-.88h3.967" transform="translate(3149.861 -180.025)" fill="none" stroke="#fff" stroke-linecap="round" stroke-linejoin="round" stroke-width="1"/>
    <rect id="사각형_192" data-name="사각형 192" width="18.032" height="1.858" transform="translate(2.149 25.345)" fill="none" stroke="#fff" stroke-linecap="round" stroke-linejoin="round" stroke-width="1"/>
    <rect id="사각형_193" data-name="사각형 193" width="16.368" height="1.858" rx="0.929" transform="translate(2.981 27.203)" fill="none" stroke="#fff" stroke-linecap="round" stroke-linejoin="round" stroke-width="1"/>
    <rect id="사각형_194" data-name="사각형 194" width="8.572" height="19.151" transform="translate(6.879 6.194)" fill="none" stroke="#fff" stroke-linecap="round" stroke-linejoin="round" stroke-width="1"/>
    <circle id="타원_35" data-name="타원 35" cx="0.991" cy="0.991" r="0.991" transform="translate(8.266 21.984)" fill="#fff"/>
    <line id="선_143" data-name="선 143" x2="6.689" transform="translate(6.879 20.761)" fill="none" stroke="#fff" stroke-linecap="round" stroke-linejoin="round" stroke-width="1"/>
    <g id="그룹_14195" data-name="그룹 14195" transform="translate(1.329 29.061)">
      <path id="패스_11490" data-name="패스 11490" d="M-3114,552.726l.839.466a1.579,1.579,0,0,1,.813,1.381v.761a.737.737,0,0,1-.737.737h-18.2a.737.737,0,0,1-.737-.737v-.761a1.579,1.579,0,0,1,.813-1.381l.839-.466" transform="translate(3132.019 -552.726)" fill="none" stroke="#fff" stroke-linecap="round" stroke-linejoin="round" stroke-width="1"/>
    </g>
    <g id="그룹_14196" data-name="그룹 14196" transform="translate(2.346 32.443)">
      <path id="패스_11491" data-name="패스 11491" d="M-3100.681,598.119l-.345,17.3a.932.932,0,0,1-.689.88,32.14,32.14,0,0,1-7.842.649,32.14,32.14,0,0,1-7.842-.649.932.932,0,0,1-.689-.88l-.288-14.463" transform="translate(3118.376 -598.119)" fill="none" stroke="#fff" stroke-linecap="round" stroke-linejoin="round" stroke-width="1"/>
    </g>
    <g id="그룹_14197" data-name="그룹 14197" transform="translate(2.634 44.503)">
      <path id="패스_11492" data-name="패스 11492" d="M-3099.394,761.129a43.337,43.337,0,0,1-6.582.39,32.14,32.14,0,0,1-7.842-.649.932.932,0,0,1-.689-.88" transform="translate(3114.507 -759.989)" fill="none" stroke="#fff" stroke-linecap="round" stroke-linejoin="round" stroke-width="1"/>
    </g>
    <path id="패스_11493" data-name="패스 11493" d="M-2871.474,565.867h2.669a.663.663,0,0,1,.663.663v1.077a.663.663,0,0,1-.663.663h-2.669" transform="translate(2892.215 -535.827)" fill="none" stroke="#fff" stroke-linecap="round" stroke-linejoin="round" stroke-width="1"/>
    <path id="패스_11494" data-name="패스 11494" d="M-2879.166,598.119l3.406,1.425a1.759,1.759,0,0,1,1.079,1.685l-.323,9a.868.868,0,0,1-.867.837H-2877a.868.868,0,0,1-.866-.805l-.528-7.313a1.518,1.518,0,0,0-1.6-1.406l-2.67.159" transform="translate(2902.576 -565.676)" fill="none" stroke="#fff" stroke-linecap="round" stroke-linejoin="round" stroke-width="1"/>
    <g id="그룹_14198" data-name="그룹 14198" transform="translate(0.834 49.302)">
      <path id="패스_11495" data-name="패스 11495" d="M-3136.878,824.412h-.713a1.079,1.079,0,0,0-1.079,1.078v3.789a1.079,1.079,0,0,0,1.079,1.078,36.853,36.853,0,0,0,9.253.978,36.856,36.856,0,0,0,9.253-.978,1.078,1.078,0,0,0,1.078-1.078V825.49a1.078,1.078,0,0,0-1.078-1.078h-.713" transform="translate(3138.67 -824.412)" fill="none" stroke="#fff" stroke-linecap="round" stroke-linejoin="round" stroke-width="1"/>
    </g>
    <rect id="사각형_195" data-name="사각형 195" width="6.937" height="3.499" rx="1.75" transform="translate(7.696 37.733)" fill="none" stroke="#fff" stroke-linecap="round" stroke-linejoin="round" stroke-width="1"/>
  </g>
</svg>
