<svg xmlns="http://www.w3.org/2000/svg" width="26.954" height="29.45" viewBox="0 0 26.954 29.45">
  <g id="그룹_14311" data-name="그룹 14311" transform="translate(-156.611 -367.063)">
    <path id="패스_11370" data-name="패스 11370" d="M301.992,367.023c-5.966,0-10.8,4.276-10.8,9.551v.242a9.457,9.457,0,0,0,5.661,8.4,3.625,3.625,0,0,1-.733,1.361c-.458.544-1.035,1.178-1.3,1.427s-.024.364.77.183a19.571,19.571,0,0,0,3.7-1.384c.559-.284.885-.449,1.115-.552a12.352,12.352,0,0,0,1.586.114v-1.15c5.966,0,9.53.487,9.53-4.789v-9.36Z" transform="translate(-130.624 3.285)" fill="#ffe400"/>
    <g id="그룹_14068" data-name="그룹 14068" transform="translate(183.031 380.861)">
      <path id="패스_11371" data-name="패스 11371" d="M416.8,399.612l0,0h0Z" transform="translate(-416.267 -399.613)" fill="#ffe400"/>
      <path id="패스_11372" data-name="패스 11372" d="M415.555,402.8a.117.117,0,0,0,.009.016l-.017-.034A.1.1,0,0,0,415.555,402.8Z" transform="translate(-415.547 -401.437)" fill="#ffe400"/>
    </g>
    <path id="패스_11373" data-name="패스 11373" d="M304.681,367.116h-.231a13.235,13.235,0,0,0-13.235,13.235v.335a13.235,13.235,0,0,0,6.936,11.643,5.263,5.263,0,0,1-.9,1.885c-.561.753-1.267,1.631-1.592,1.977s-.03.5.942.254a22.246,22.246,0,0,0,4.537-1.917c.684-.4,1.084-.622,1.367-.766a13.129,13.129,0,0,0,1.943.159h.231a13.236,13.236,0,0,0,13.235-13.235v-.335A13.235,13.235,0,0,0,304.681,367.116Zm-7.08,13.012h2.837v2.811H297.6a1.715,1.715,0,0,1-1.139-.382,1.259,1.259,0,0,1-.445-1.035,1.236,1.236,0,0,1,.451-1.013A1.7,1.7,0,0,1,297.6,380.128Zm13.317,1.256a4.589,4.589,0,0,1-3.748,1.572H305.25v-2.812H306.3a2.423,2.423,0,0,0,1.8-.633,2.214,2.214,0,0,0,.594-1.626,2.093,2.093,0,0,0-.667-1.5,2.244,2.244,0,0,0-1.549-.552h-2.055v10.491a2,2,0,0,1-.433,1.306,1.436,1.436,0,0,1-1.182.514,1.484,1.484,0,0,1-1.2-.518,1.935,1.935,0,0,1-.448-1.3V375.014a1.835,1.835,0,0,1,2-2h3.538a5.223,5.223,0,0,1,3.779,1.238,4.956,4.956,0,0,1,.824,1.042,5.275,5.275,0,0,1,.547,1.258,4.928,4.928,0,0,1,.185,1.321A5.3,5.3,0,0,1,310.918,381.384Z" transform="translate(-134.604 -0.054)" fill="#2f2023"/>
    <g id="그룹_14070" data-name="그룹 14070" transform="translate(157.243 368.078)">
      <path id="패스_11379" data-name="패스 11379" d="M299.919,392.991a12.228,12.228,0,0,1-6.41-10.759v-.31a12.23,12.23,0,0,1,12.23-12.23h.212a12.3,12.3,0,0,1,2.357.229,12.217,12.217,0,0,0-3.162-.414h-.215a12.23,12.23,0,0,0-12.229,12.23v.309a12.229,12.229,0,0,0,6.408,10.759Z" transform="translate(-292.703 -369.507)" fill="#966a73" opacity="0.5"/>
    </g>
  </g>
</svg>
