<svg xmlns="http://www.w3.org/2000/svg" width="22.976" height="22.973" viewBox="0 0 22.976 22.973">
  <path id="Icon_awesome-instagram" data-name="Icon awesome-instagram" d="M11.485,7.834a5.89,5.89,0,1,0,5.889,5.89A5.88,5.88,0,0,0,11.485,7.834Zm0,9.719a3.829,3.829,0,1,1,3.829-3.829A3.836,3.836,0,0,1,11.485,17.553Zm7.5-9.96a1.374,1.374,0,1,1-1.374-1.374A1.371,1.371,0,0,1,18.989,7.593Zm3.9,1.394a6.8,6.8,0,0,0-1.856-4.813,6.843,6.843,0,0,0-4.813-1.856c-1.9-.108-7.581-.108-9.477,0a6.833,6.833,0,0,0-4.813,1.85A6.821,6.821,0,0,0,.075,8.982c-.108,1.9-.108,7.581,0,9.478a6.8,6.8,0,0,0,1.856,4.813,6.851,6.851,0,0,0,4.813,1.856c1.9.108,7.581.108,9.477,0a6.8,6.8,0,0,0,4.813-1.856A6.843,6.843,0,0,0,22.89,18.46c.108-1.9.108-7.576,0-9.473ZM20.44,20.5a3.877,3.877,0,0,1-2.184,2.184c-1.512.6-5.1.461-6.771.461s-5.264.133-6.771-.461A3.877,3.877,0,0,1,2.531,20.5c-.6-1.512-.461-5.1-.461-6.771s-.133-5.264.461-6.771A3.877,3.877,0,0,1,4.714,4.769c1.512-.6,5.1-.461,6.771-.461s5.264-.133,6.771.461A3.877,3.877,0,0,1,20.44,6.952c.6,1.512.461,5.1.461,6.771S21.04,18.988,20.44,20.5Z" transform="translate(0.005 -2.237)" fill="#fff"/>
</svg>
