<svg xmlns="http://www.w3.org/2000/svg" width="27.12" height="25.22" viewBox="0 0 27.12 25.22">
  <g id="그룹_14008" data-name="그룹 14008" transform="translate(-818.162 -647.647)">
    <path id="패스_11354" data-name="패스 11354" d="M829.726,660.292a.9.9,0,1,0,.9.9A.9.9,0,0,0,829.726,660.292Z" transform="translate(-5.392 -3.221)" fill="#fff" stroke="rgba(0,0,0,0)" stroke-width="0.9"/>
    <path id="패스_11355" data-name="패스 11355" d="M843.153,660.15a.972.972,0,1,0,.973.973A.972.972,0,0,0,843.153,660.15Z" transform="translate(-9.901 -3.173)" fill="#fff" stroke="rgba(0,0,0,0)" stroke-width="0.9"/>
    <path id="패스_11356" data-name="패스 11356" d="M844.262,646.746H825.056a3.507,3.507,0,0,0-3.507,3.508v11.4a3.507,3.507,0,0,0,3.507,3.508h6.784l2.307,5.435s.158.472.543.472h0c.385,0,.543-.472.543-.472l2.307-5.435h6.721a3.508,3.508,0,0,0,3.508-3.508v-11.4A3.507,3.507,0,0,0,844.262,646.746Zm-14.475,10.075a2.173,2.173,0,0,1-2.166,2.144,1.8,1.8,0,0,1-1.3-.552v.375h-1.569v-6.47c-.006,0-.007,0,0,0v0c.1.015,1.569,0,1.569,0v2.474c.369-.629,1.437-.619,1.437-.619A2.3,2.3,0,0,1,829.787,656.821Zm2.762-2.452V658.8h-1.536v-4.387c0-.6-.741-.762-.741-.762V652.1A2.124,2.124,0,0,1,832.549,654.368Zm3.64,4.6a2.378,2.378,0,1,1,2.574-2.369A2.479,2.479,0,0,1,836.189,658.968Zm8.413,0a2.19,2.19,0,0,1-2.265,2.25h-.7v-1.458h.419s.961.089.95-1.391c0,0-.187.6-1.535.6a2.025,2.025,0,0,1-1.911-2v-.707a2.183,2.183,0,0,1,2.142-2.088,1.564,1.564,0,0,1,1.337.6v-.475H844.6Z" transform="translate(-2.937 1.351)" fill="#fff" stroke="rgba(0,0,0,0)" stroke-width="0.9"/>
    <path id="패스_11357" data-name="패스 11357" d="M852.178,660.183a.95.95,0,1,0,.95.951A.951.951,0,0,0,852.178,660.183Z" transform="translate(-12.955 -3.184)" fill="#fff" stroke="rgba(0,0,0,0)" stroke-width="0.9"/>
  </g>
</svg>
