<svg xmlns="http://www.w3.org/2000/svg" width="94.233" height="39.988" viewBox="0 0 94.233 39.988">
  <g id="그룹_14118" data-name="그룹 14118" transform="translate(-180 -408.39)">
    <path id="패스_11397" data-name="패스 11397" d="M375.2,647.73v-.238l1.173-.594.312-8.12-1.277-.608v-.238h2.746l3.429,7.9,3.414-7.9h2.613v.238l-1.247.594.252,8.135,1.039.594v.238H384.24v-.238l1.1-.579-.148-7.318-3.548,8.209h-.668l-3.488-8.105-.193,7.214,1.2.579v.238Z" transform="translate(-169.652 -199.5)"/>
    <path id="패스_11398" data-name="패스 11398" d="M485.1,647.73v-.238l1.188-.594v-8.135l-1.188-.594v-.238h3.711v.238l-1.187.594V646.9l1.187.594v.238Z" transform="translate(-265.173 -199.5)"/>
    <path id="패스_11399" data-name="패스 11399" d="M528.772,647.73v-.238l1.188-.594v-8.135l-1.188-.594v-.238h3.86v.238l-1.336.594v8.15H534.9l1.009-2.479h.238v3.3Z" transform="translate(-303.125 -199.5)"/>
    <path id="패스_11400" data-name="패스 11400" d="M599.32,647.73v-.238l1.188-.594v-8.135l-1.188-.594v-.238h7.259v2.553h-.237l-.92-1.737h-3.578v3.518h2.524l.742-1.232h.238v3.251h-.238l-.742-1.2h-2.524v3.83h3.993l.92-1.885h.237v2.7Z" transform="translate(-364.439 -199.5)"/>
    <path id="패스_11401" data-name="패스 11401" d="M675.731,646.892a6.122,6.122,0,0,1-1.559-.171,7.009,7.009,0,0,1-1.321-.512l-.148-2.435h.237l.727,1.573a3.9,3.9,0,0,0,1.039.646,2.752,2.752,0,0,0,1.024.2,1.944,1.944,0,0,0,1.373-.46,1.872,1.872,0,0,0,.208-2.271,2.569,2.569,0,0,0-.831-.661q-.542-.289-1.284-.661a10.207,10.207,0,0,1-1.188-.7,2.4,2.4,0,0,1-.742-.794,2.307,2.307,0,0,1-.252-1.136,2.159,2.159,0,0,1,.245-.987,3.128,3.128,0,0,1,.668-.876,3.364,3.364,0,0,1,.95-.623,2.7,2.7,0,0,1,1.091-.23,4.633,4.633,0,0,1,1.262.163,7.14,7.14,0,0,1,1.188.46l.148,2.375h-.237l-.683-1.559a4.946,4.946,0,0,0-.906-.557,2.185,2.185,0,0,0-.891-.171,1.42,1.42,0,0,0-1.076.445,1.691,1.691,0,0,0,.037,2.279,6.137,6.137,0,0,0,1.44.9,14.287,14.287,0,0,1,1.484.824,2.614,2.614,0,0,1,.861.868,2.782,2.782,0,0,1-.015,2.472,2.864,2.864,0,0,1-.765.883,3.375,3.375,0,0,1-1.024.534,3.483,3.483,0,0,1-1.061.178" transform="translate(-428.219 -198.514)"/>
    <path id="패스_11402" data-name="패스 11402" d="M180.406,433.14v-.923q3.214-3.693,5.282-6.169t3.232-4.119a19.035,19.035,0,0,0,1.7-2.789,7.393,7.393,0,0,0,.665-2.087,15.159,15.159,0,0,0,.129-2.05,5.128,5.128,0,0,0-1.182-3.565,3.737,3.737,0,0,0-2.881-1.311,4.042,4.042,0,0,0-2.955,1.016,4.094,4.094,0,0,0-1.034,3.048v1.662l-.185.258h-1.7a1.935,1.935,0,0,1-1.108-.258q-.37-.258-.369-1.293a4.015,4.015,0,0,1,.573-1.976,5.587,5.587,0,0,1,1.755-1.828q.96-.665,1.829-1.2a8.166,8.166,0,0,1,1.884-.85,8.4,8.4,0,0,1,2.456-.314,6.31,6.31,0,0,1,3.343.887A6.508,6.508,0,0,1,195,414.928a7.985,7.985,0,0,1-.3,2.235,8.145,8.145,0,0,1-.979,2.087,24.151,24.151,0,0,1-1.884,2.493q-1.2,1.423-3.029,3.435t-4.377,4.931h8.681l1.847-3.583h.591l-.369,6.612Z"/>
    <path id="패스_11403" data-name="패스 11403" d="M331.624,435.593V435l3.325-1.478v-5.061H324.79v-.739l12.559-16.512h.739v14.776h4.4v2.475h-4.4v5.061L341.043,435v.591Zm-3.324-9.6h6.649v-9.05Z" transform="translate(-125.84 -2.454)"/>
    <path id="패스_11404" data-name="패스 11404" d="M486.988,433.509v-1.071a15.167,15.167,0,0,0,7.222-4.691,14.524,14.524,0,0,0,3.269-7.684,7.705,7.705,0,0,1-2.475,2.2,6.813,6.813,0,0,1-3.4.831,6.32,6.32,0,0,1-3.454-.923,6.148,6.148,0,0,1-2.253-2.53A8.1,8.1,0,0,1,485.1,416a7.975,7.975,0,0,1,.886-3.639,7.146,7.146,0,0,1,2.66-2.863,8.221,8.221,0,0,1,4.433-1.108,7.594,7.594,0,0,1,4.248,1.182,7.928,7.928,0,0,1,2.807,3.214,10.344,10.344,0,0,1,1,4.617,14.7,14.7,0,0,1-1.718,7.074,16.351,16.351,0,0,1-4.895,5.5,23.421,23.421,0,0,1-7.536,3.528m1.515-18.322q0,5.43,4.543,5.43a5.387,5.387,0,0,0,4.581-2.475v-.406a12.663,12.663,0,0,0-.646-4.451,5.269,5.269,0,0,0-1.681-2.438,3.792,3.792,0,0,0-2.29-.757,4.126,4.126,0,0,0-2.493.739,4.5,4.5,0,0,0-1.515,1.9,6.171,6.171,0,0,0-.5,2.456" transform="translate(-265.172)"/>
    <path id="패스_11405" data-name="패스 11405" d="M648.071,433.51a6.6,6.6,0,0,1-5.929-3.362q-2.087-3.361-2.087-9.2a18.981,18.981,0,0,1,1.016-6.446,10.86,10.86,0,0,1,2.826-4.47,6.025,6.025,0,0,1,4.174-1.644A6.6,6.6,0,0,1,654,411.753q2.086,3.362,2.087,9.2a18.69,18.69,0,0,1-1.034,6.446,11.12,11.12,0,0,1-2.826,4.47,5.959,5.959,0,0,1-4.156,1.644m.776-1.736a2.463,2.463,0,0,0,2.069-1.256,9.79,9.79,0,0,0,1.311-3.454,24.282,24.282,0,0,0,.462-4.968,23.875,23.875,0,0,0-1.311-8.792q-1.312-3.214-3.934-3.214a2.578,2.578,0,0,0-2.143,1.256,9.507,9.507,0,0,0-1.367,3.435,23.1,23.1,0,0,0-.48,4.95,23.413,23.413,0,0,0,1.348,8.81q1.348,3.233,4.045,3.232" transform="translate(-399.843 -0.001)"/>
    <path id="패스_11406" data-name="패스 11406" d="M807.178,435.593V435l3.324-1.477V414.8l-6.464,3.251v-1.293l8.865-5.541h.739v22.312L816.6,435v.591Z" transform="translate(-542.364 -2.453)"/>
  </g>
</svg>
