<svg id="그룹_56" data-name="그룹 56" xmlns="http://www.w3.org/2000/svg" xmlns:xlink="http://www.w3.org/1999/xlink" width="110.965" height="50.393" viewBox="0 0 110.965 50.393">
  <defs>
    <clipPath id="clip-path">
      <rect id="사각형_51" data-name="사각형 51" width="110.965" height="50.393" transform="translate(0 0)" fill="#fff"/>
    </clipPath>
  </defs>
  <g id="그룹_54" data-name="그룹 54" transform="translate(0 0)" clip-path="url(#clip-path)">
    <path id="패스_57" data-name="패스 57" d="M134.884,50.079V30.892l-5.99-.28V50.079c0,13.159-4.755,21.761-4.755,21.761l8.249-5.552a51.517,51.517,0,0,0,2.5-16.209" transform="translate(-56.021 -22.32)" fill="#fff"/>
    <path id="패스_58" data-name="패스 58" d="M135.862,50.264a51.549,51.549,0,0,1-2.565,16.5l-.083.22-8.521,5.7,1.01.223,8.113-5.446.163-.442a52.316,52.316,0,0,0,2.61-16.753V31.926l-.729-.776Z" transform="translate(-56.219 -22.512)" fill="#fff"/>
    <path id="패스_59" data-name="패스 59" d="M45.393,21.993l-6.38-.856V41.6L23.709,18.8l-5.414-1.072V60.077l6.838-1.214V34.4L40.955,56.248l4.437-.465Z" transform="translate(-18.295 -17.728)" fill="#fff"/>
    <path id="패스_60" data-name="패스 60" d="M26.136,47.1V70l-7,1.283.642.609,7.088-1.283,0-22.436Z" transform="translate(-18.594 -28.198)" fill="#fff"/>
    <path id="패스_61" data-name="패스 61" d="M58.958,59.1l-4.8.521.46.661,5.067-.523v-34.2l-.727-.507Z" transform="translate(-31.078 -20.338)" fill="#fff"/>
    <path id="패스_62" data-name="패스 62" d="M75.8,26.185l-5.335-.654V57.711l5.335-.653Z" transform="translate(-36.892 -20.509)" fill="#fff"/>
    <path id="패스_63" data-name="패스 63" d="M76.723,58.14l-5.867.709.561.645,6.036-.708V27.257l-.73-.665Z" transform="translate(-37.03 -20.887)" fill="#fff"/>
    <path id="패스_64" data-name="패스 64" d="M110.787,29.336l-5.663-.466V44.715L92.6,27.937l-4.245-.373V57.315l5.657-.655v-17.4L106.3,55.822l4.484-.281Z" transform="translate(-43.268 -21.234)" fill="#fff"/>
    <path id="패스_65" data-name="패스 65" d="M122.328,31.27l-.73-.841V57.3l-5.1.3.561.7,5.265-.311Z" transform="translate(-53.299 -22.255)" fill="#fff"/>
    <path id="패스_66" data-name="패스 66" d="M94.71,65.061l-6.38.678.561.631,6.547-.661V50.323l-.728-1.174Z" transform="translate(-43.258 -28.928)" fill="#fff"/>
    <path id="패스_67" data-name="패스 67" d="M163.065,32.085l-6.76-.162L146.162,56.436l6.7-.279,1.611-4.436h10.242l1.541,3.9H172.6Zm-6.962,14.7,3.511-9.012,3.471,9.012Z" transform="translate(-63.871 -22.788)" fill="#fff"/>
    <path id="패스_68" data-name="패스 68" d="M163.232,50.412h.794l1.937-5.172L165.7,44.1Z" transform="translate(-69.956 -27.129)" fill="#fff"/>
    <path id="패스_69" data-name="패스 69" d="M153.261,68.307l-7.326.283.25.747,7.593-.324,1.864-5.139h-.769Z" transform="translate(-63.79 -34.176)" fill="#fff"/>
    <path id="패스_70" data-name="패스 70" d="M174.716,32.7l-1.034-.607,9.881,24.37-7.149.03.4.709,7.828-.008Z" transform="translate(-73.68 -22.848)" fill="#fff"/>
    <path id="패스_71" data-name="패스 71" d="M179.288,32.984v-.008a1.33,1.33,0,1,1,2.659-.008v.008a1.33,1.33,0,1,1-2.659.008m2.507-.008v-.008a1.177,1.177,0,1,0-2.354.008v.008a1.177,1.177,0,1,0,2.354-.008m-1.735-.718h.65c.328,0,.566.145.566.458a.426.426,0,0,1-.306.428l.351.5h-.405l-.3-.443H180.4v.443h-.344Zm.627.673c.161,0,.245-.077.245-.191s-.091-.183-.245-.183H180.4v.375Z" transform="translate(-75.679 -22.686)" fill="#fff"/>
  </g>
</svg>
