<svg xmlns="http://www.w3.org/2000/svg" width="41.835" height="33.141" viewBox="0 0 41.835 33.141">
  <g id="product_ico6" transform="translate(0.5 0.5)" opacity="0.85">
    <rect id="사각형_174" data-name="사각형 174" width="35.376" height="2.844" rx="1.422" transform="translate(2.729 2.205)" fill="none" stroke="#fff" stroke-linecap="round" stroke-miterlimit="10" stroke-width="1"/>
    <path id="패스_11447" data-name="패스 11447" d="M-6793.629,324.292h-18.361a2.056,2.056,0,0,0-2.052,2.181l1.147,24.678a5.624,5.624,0,0,0,5.614,5.282h27.3a5.624,5.624,0,0,0,5.614-5.282l1.147-24.678a2.056,2.056,0,0,0-2.052-2.181Z" transform="translate(6814.046 -324.292)" fill="none" stroke="#fff" stroke-linecap="round" stroke-miterlimit="10" stroke-width="1"/>
    <g id="패스_11448" data-name="패스 11448" transform="translate(6783.079 -405.298)" fill="none" stroke-miterlimit="10">
      <path d="M-6762.662,411.819h-16.119a1.805,1.805,0,0,0-1.8,1.915l.5,17.106a4.938,4.938,0,0,0,4.928,4.637h24.99a4.937,4.937,0,0,0,4.928-4.637l.5-17.106a1.805,1.805,0,0,0-1.8-1.915Z" stroke="none"/>
      <path d="M -6778.78076171875 412.8190002441406 C -6779.00537109375 412.8190002441406 -6779.21337890625 412.9090270996094 -6779.3671875 413.072509765625 C -6779.52099609375 413.2359008789062 -6779.59814453125 413.4491577148438 -6779.58447265625 413.6729736328125 L -6779.5830078125 413.7049560546875 L -6779.08642578125 430.7943725585938 C -6778.9521484375 432.8607177734375 -6777.2294921875 434.4772644042969 -6775.1572265625 434.4772644042969 L -6750.1669921875 434.4772644042969 C -6748.0947265625 434.4772644042969 -6746.37158203125 432.8607482910156 -6746.23779296875 430.7944946289062 L -6745.7392578125 413.6730041503906 C -6745.7255859375 413.4491577148438 -6745.802734375 413.2359008789062 -6745.95654296875 413.072509765625 C -6746.1103515625 412.9090270996094 -6746.318359375 412.8190002441406 -6746.54296875 412.8190002441406 L -6778.78076171875 412.8190002441406 M -6778.78076171875 411.8190002441406 L -6746.54296875 411.8190002441406 C -6745.5029296875 411.8190002441406 -6744.677734375 412.6957397460938 -6744.7412109375 413.7340087890625 L -6745.23876953125 430.8403015136719 C -6745.3974609375 433.4456481933594 -6747.556640625 435.4772644042969 -6750.1669921875 435.4772644042969 L -6775.1572265625 435.4772644042969 C -6777.76708984375 435.4772644042969 -6779.92626953125 433.4456481933594 -6780.08544921875 430.8403015136719 L -6780.58251953125 413.7340087890625 C -6780.64599609375 412.6957397460938 -6779.82080078125 411.8190002441406 -6778.78076171875 411.8190002441406 Z" stroke="none" fill="#fff"/>
    </g>
    <path id="패스_11449" data-name="패스 11449" d="M-6719.476,703.345h-25.492l-2.853-2.1h30.966Z" transform="translate(6752.754 -673.166)" fill="#fff"/>
    <g id="그룹_14168" data-name="그룹 14168" transform="translate(5.703 25.372)">
      <line id="선_129" data-name="선 129" x2="20.207" fill="none" stroke="#fff" stroke-linecap="round" stroke-miterlimit="10" stroke-width="1"/>
      <line id="선_130" data-name="선 130" x2="6.238" transform="translate(23.191)" fill="none" stroke="#fff" stroke-linecap="round" stroke-miterlimit="10" stroke-width="1"/>
    </g>
    <g id="그룹_14169" data-name="그룹 14169" transform="translate(5.703 12.693)">
      <line id="선_131" data-name="선 131" x1="20.207" transform="translate(9.222)" fill="none" stroke="#fff" stroke-linecap="round" stroke-miterlimit="10" stroke-width="1"/>
      <line id="선_132" data-name="선 132" x1="6.238" fill="none" stroke="#fff" stroke-linecap="round" stroke-miterlimit="10" stroke-width="1"/>
    </g>
    <g id="그룹_14170" data-name="그룹 14170" transform="translate(5.139 2.97)">
      <circle id="타원_25" data-name="타원 25" cx="0.656" cy="0.656" r="0.656" fill="#fff"/>
      <circle id="타원_26" data-name="타원 26" cx="0.656" cy="0.656" r="0.656" transform="translate(29.243)" fill="#fff"/>
    </g>
  </g>
</svg>
