<svg xmlns="http://www.w3.org/2000/svg" width="33.521" height="47.577" viewBox="0 0 33.521 47.577">
  <g id="product_ico1" transform="translate(0 0)" opacity="0.85">
    <g id="그룹_14156" data-name="그룹 14156">
      <g id="그룹_14154" data-name="그룹 14154" transform="translate(0 10.823)">
        <path id="패스_11432" data-name="패스 11432" d="M-6734.861-777.273h-26.693a3.418,3.418,0,0,1-3.414-3.414v-32.744a.6.6,0,0,1,.6-.6.6.6,0,0,1,.6.6v32.744a2.224,2.224,0,0,0,2.222,2.222h26.693a2.225,2.225,0,0,0,2.222-2.222v-5.9a.6.6,0,0,1,.6-.6.6.6,0,0,1,.6.6v5.9A3.418,3.418,0,0,1-6734.861-777.273Z" transform="translate(6764.968 814.027)" fill="#fff"/>
      </g>
      <g id="그룹_14155" data-name="그룹 14155">
        <path id="패스_11433" data-name="패스 11433" d="M-6732.043-923.85a.6.6,0,0,1-.6-.6v-31.441a2.225,2.225,0,0,0-2.222-2.222h-26.693a2.224,2.224,0,0,0-2.222,2.222v3.929a.6.6,0,0,1-.6.6.6.6,0,0,1-.6-.6v-3.929a3.418,3.418,0,0,1,3.414-3.414h26.693a3.418,3.418,0,0,1,3.414,3.414v31.441A.6.6,0,0,1-6732.043-923.85Z" transform="translate(6764.968 959.301)" fill="#fff"/>
      </g>
    </g>
    <g id="그룹_14157" data-name="그룹 14157" transform="translate(16.165 0.596)">
      <rect id="사각형_170" data-name="사각형 170" width="1.192" height="46.385" fill="#fff"/>
    </g>
    <g id="그룹_14158" data-name="그룹 14158" transform="translate(2.205 5.411)">
      <path id="패스_11434" data-name="패스 11434" d="M-6728.954-872.548h-3.844a2.577,2.577,0,0,1-2.574-2.574v-8.971a2.577,2.577,0,0,1,2.574-2.574h3.844a2.577,2.577,0,0,1,2.574,2.574v8.971A2.577,2.577,0,0,1-6728.954-872.548Zm-3.844-12.927a1.383,1.383,0,0,0-1.382,1.382v8.971a1.383,1.383,0,0,0,1.382,1.382h3.844a1.383,1.383,0,0,0,1.382-1.382v-8.971a1.383,1.383,0,0,0-1.382-1.382Z" transform="translate(6735.371 886.667)" fill="#fff"/>
    </g>
    <g id="그룹_14159" data-name="그룹 14159" transform="translate(12.258 13.545)">
      <path id="패스_11435" data-name="패스 11435" d="M-6598.946-768.554a1.5,1.5,0,0,1-1.494-1.493V-776a1.5,1.5,0,0,1,1.494-1.493,1.5,1.5,0,0,1,1.493,1.493v5.949A1.5,1.5,0,0,1-6598.946-768.554Zm0-7.744a.3.3,0,0,0-.3.3v5.949a.3.3,0,0,0,.3.3.3.3,0,0,0,.3-.3V-776A.3.3,0,0,0-6598.946-776.3Z" transform="translate(6600.439 777.49)" fill="#fff"/>
    </g>
    <g id="그룹_14160" data-name="그룹 14160" transform="translate(18.273 13.545)">
      <path id="패스_11436" data-name="패스 11436" d="M-6518.207-757a1.5,1.5,0,0,1-1.493-1.493V-776a1.5,1.5,0,0,1,1.493-1.493,1.5,1.5,0,0,1,1.494,1.493v17.5A1.5,1.5,0,0,1-6518.207-757Zm0-19.295a.3.3,0,0,0-.3.3v17.5a.3.3,0,0,0,.3.3.3.3,0,0,0,.3-.3V-776A.3.3,0,0,0-6518.207-776.3Z" transform="translate(6519.7 777.49)" fill="#fff"/>
    </g>
    <g id="그룹_14161" data-name="그룹 14161" transform="translate(12.258 25.096)">
      <path id="패스_11437" data-name="패스 11437" d="M-6598.946-613.518a1.5,1.5,0,0,1-1.494-1.493v-5.949a1.5,1.5,0,0,1,1.494-1.493,1.5,1.5,0,0,1,1.493,1.493v5.949A1.5,1.5,0,0,1-6598.946-613.518Zm0-7.744a.3.3,0,0,0-.3.3v5.949a.3.3,0,0,0,.3.3.3.3,0,0,0,.3-.3v-5.949A.3.3,0,0,0-6598.946-621.262Z" transform="translate(6600.439 622.454)" fill="#fff"/>
    </g>
    <g id="그룹_14162" data-name="그룹 14162" transform="translate(0 23.193)">
      <path id="패스_11438" data-name="패스 11438" d="M-6748.208-646.808h-16.165a.6.6,0,0,1-.6-.6.6.6,0,0,1,.6-.6h16.165a.6.6,0,0,1,.6.6A.6.6,0,0,1-6748.208-646.808Z" transform="translate(6764.968 648)" fill="#fff"/>
    </g>
  </g>
</svg>
