<svg xmlns="http://www.w3.org/2000/svg" xmlns:xlink="http://www.w3.org/1999/xlink" width="284.758" height="284.615" viewBox="0 0 284.758 284.615">
  <defs>
    <clipPath id="clip-path">
      <rect id="사각형_262" data-name="사각형 262" width="284.758" height="284.615" transform="translate(352.097 9417.908)" fill="#2e2e2e" stroke="rgba(0,0,0,0)" stroke-width="1.1"/>
    </clipPath>
    <clipPath id="clip-path-2">
      <rect id="사각형_244" data-name="사각형 244" width="44.178" height="62.702" fill="none"/>
    </clipPath>
    <clipPath id="clip-path-4">
      <rect id="사각형_250" data-name="사각형 250" width="71.316" height="235.071" fill="none" stroke="#707070" stroke-width="2"/>
    </clipPath>
    <clipPath id="clip-path-6">
      <rect id="사각형_255" data-name="사각형 255" width="54.136" height="46.085" fill="none" stroke="#707070" stroke-width="1.5"/>
    </clipPath>
    <clipPath id="clip-path-8">
      <rect id="사각형_259" data-name="사각형 259" width="30.987" height="60.936" fill="none" stroke="#707070" stroke-width="1.5"/>
    </clipPath>
    <clipPath id="clip-path-10">
      <rect id="사각형_261" data-name="사각형 261" width="63.825" height="140.509" fill="none" stroke="#707070" stroke-width="2"/>
    </clipPath>
  </defs>
  <g id="마스크_그룹_11" data-name="마스크 그룹 11" transform="translate(-352.097 -9417.908)" clip-path="url(#clip-path)">
    <g id="그룹_14320" data-name="그룹 14320" transform="translate(392.413 9414.613)" opacity="0.4">
      <g id="그룹_14319" data-name="그룹 14319">
        <g id="그룹_14318" data-name="그룹 14318" clip-path="url(#clip-path-2)">
          <g id="그룹_14317" data-name="그룹 14317" opacity="0.85">
            <g id="그룹_14316" data-name="그룹 14316">
              <g id="그룹_14315" data-name="그룹 14315" clip-path="url(#clip-path-2)">
                <path id="패스_11614" data-name="패스 11614" d="M98.264,280.473H63.084a4.5,4.5,0,0,1-4.5-4.5V232.82a.786.786,0,0,1,1.571,0v43.154a2.932,2.932,0,0,0,2.928,2.928H98.264a2.932,2.932,0,0,0,2.928-2.928V268.2a.786.786,0,0,1,1.571,0v7.772a4.5,4.5,0,0,1-4.5,4.5" transform="translate(-58.585 -217.771)" fill="#fff"/>
                <path id="패스_11615" data-name="패스 11615" d="M101.977,182.088a.786.786,0,0,1-.785-.785V139.866a2.932,2.932,0,0,0-2.928-2.928H63.084a2.931,2.931,0,0,0-2.928,2.928v5.178a.786.786,0,1,1-1.571,0v-5.178a4.5,4.5,0,0,1,4.5-4.5H98.263a4.5,4.5,0,0,1,4.5,4.5V181.3a.786.786,0,0,1-.785.785" transform="translate(-58.585 -135.367)" fill="#fff"/>
                <rect id="사각형_242" data-name="사각형 242" width="1.571" height="61.131" transform="translate(21.303 0.786)" fill="#fff"/>
                <path id="패스_11616" data-name="패스 11616" d="M86.738,202.306H81.672a3.4,3.4,0,0,1-3.392-3.392V187.091a3.4,3.4,0,0,1,3.392-3.392h5.066a3.4,3.4,0,0,1,3.392,3.392v11.823a3.4,3.4,0,0,1-3.392,3.392M81.672,185.27a1.823,1.823,0,0,0-1.821,1.821v11.823a1.823,1.823,0,0,0,1.821,1.821h5.066a1.823,1.823,0,0,0,1.821-1.821V187.091a1.823,1.823,0,0,0-1.821-1.821Z" transform="translate(-75.374 -176.567)" fill="#fff"/>
                <path id="패스_11617" data-name="패스 11617" d="M170.035,268.125a1.97,1.97,0,0,1-1.968-1.968v-7.84a1.968,1.968,0,1,1,3.936,0v7.84a1.97,1.97,0,0,1-1.968,1.968m0-10.206a.4.4,0,0,0-.4.4v7.84a.4.4,0,1,0,.794,0v-7.84a.4.4,0,0,0-.4-.4" transform="translate(-151.912 -238.497)" fill="#fff"/>
                <path id="패스_11618" data-name="패스 11618" d="M223.761,283.347a1.97,1.97,0,0,1-1.968-1.968V258.316a1.968,1.968,0,1,1,3.936,0v23.063a1.97,1.97,0,0,1-1.968,1.968m0-25.428a.4.4,0,0,0-.4.4v23.063a.4.4,0,0,0,.794,0V258.316a.4.4,0,0,0-.4-.4" transform="translate(-197.711 -238.497)" fill="#fff"/>
                <path id="패스_11619" data-name="패스 11619" d="M170.035,371.29a1.97,1.97,0,0,1-1.968-1.968v-7.841a1.968,1.968,0,1,1,3.936,0v7.841a1.97,1.97,0,0,1-1.968,1.968m0-10.206a.4.4,0,0,0-.4.4v7.841a.4.4,0,0,0,.794,0v-7.841a.4.4,0,0,0-.4-.4" transform="translate(-151.912 -326.439)" fill="#fff"/>
                <path id="패스_11620" data-name="패스 11620" d="M80.675,344.085h-21.3a.786.786,0,0,1,0-1.571h21.3a.786.786,0,0,1,0,1.571" transform="translate(-58.586 -311.948)" fill="#fff"/>
              </g>
            </g>
          </g>
        </g>
      </g>
    </g>
    <g id="그룹_14326" data-name="그룹 14326" transform="translate(566.023 9540.682)" opacity="0.4">
      <g id="그룹_14325" data-name="그룹 14325">
        <g id="그룹_14324" data-name="그룹 14324" clip-path="url(#clip-path-4)">
          <g id="그룹_14323" data-name="그룹 14323" opacity="0.85">
            <g id="그룹_14322" data-name="그룹 14322">
              <g id="그룹_14321" data-name="그룹 14321" clip-path="url(#clip-path-4)">
                <path id="패스_11621" data-name="패스 11621" d="M892.4,576.782v21.659a50.218,50.218,0,0,0,1.089,10.4l1.09,5.149v7.935H879.838v-7.935l1.069-5.721a50.214,50.214,0,0,0,.854-9.221V539.112a13.348,13.348,0,0,0-2.443-7.7,13.349,13.349,0,0,1-2.443-7.7V461.481a13.351,13.351,0,0,1,.748-4.405l2.561-7.326a13.361,13.361,0,0,0,.748-4.406l0-26.937a6.152,6.152,0,0,1,6.032-6.151,6.248,6.248,0,0,1,6.271,6.272v26.817a13.345,13.345,0,0,0,.748,4.4l2.562,7.327a13.351,13.351,0,0,1,.748,4.405v62.236a13.347,13.347,0,0,1-2.443,7.7,13.351,13.351,0,0,0-2.443,7.7v28.669" transform="translate(-851.552 -410.19)" fill="none" stroke="#fff" stroke-linecap="round" stroke-miterlimit="10" stroke-width="2"/>
                <path id="패스_11622" data-name="패스 11622" d="M890.848,482.1a2.993,2.993,0,1,1,2.993,2.993,2.993,2.993,0,0,1-2.993-2.993" transform="translate(-858.314 -442.543)" fill="#fff" stroke="#707070" stroke-width="2"/>
                <path id="패스_11623" data-name="패스 11623" d="M892.714,505.6a4.194,4.194,0,0,0-4.194,4.194v57.525a4.194,4.194,0,1,0,8.389,0V509.792A4.194,4.194,0,0,0,892.714,505.6Z" transform="translate(-857.187 -455.364)" fill="none" stroke="#fff" stroke-linecap="round" stroke-miterlimit="10" stroke-width="2"/>
                <line id="선_178" data-name="선 178" x2="6.615" transform="translate(31.905 104.58)" fill="none" stroke="#fff" stroke-linecap="round" stroke-miterlimit="10" stroke-width="2"/>
                <line id="선_179" data-name="선 179" x2="9.648" transform="translate(30.703 190.658)" fill="none" stroke="#fff" stroke-linecap="round" stroke-miterlimit="10" stroke-width="2"/>
                <line id="선_180" data-name="선 180" x2="67.187" transform="translate(2.064 219.569)" fill="none" stroke="#fff" stroke-linecap="round" stroke-miterlimit="10" stroke-width="2"/>
                <path id="패스_11624" data-name="패스 11624" d="M894.12,818.945H836.673a3.97,3.97,0,0,0-3.821,2.584,20.234,20.234,0,0,0-1.049,6.418v9.937a2.241,2.241,0,0,0,2.334,2.133h62.52a2.24,2.24,0,0,0,2.333-2.133v-9.937a20.22,20.22,0,0,0-1.049-6.418A3.97,3.97,0,0,0,894.12,818.945Z" transform="translate(-829.739 -607.011)" fill="none" stroke="#fff" stroke-linecap="round" stroke-miterlimit="10" stroke-width="2"/>
                <rect id="사각형_245" data-name="사각형 245" width="3.207" height="6.413" rx="0.547" transform="translate(20.914 205.521)" fill="none" stroke="#fff" stroke-linecap="round" stroke-miterlimit="10" stroke-width="2"/>
                <rect id="사각형_246" data-name="사각형 246" width="3.207" height="6.413" rx="0.547" transform="translate(47.195 205.521)" fill="none" stroke="#fff" stroke-linecap="round" stroke-miterlimit="10" stroke-width="2"/>
                <path id="사각형_247" data-name="사각형 247" d="M.711,0H3.456a.71.71,0,0,1,.71.71V7.622a.71.71,0,0,1-.71.71H.711A.711.711,0,0,1,0,7.621V.711A.711.711,0,0,1,.711,0Z" transform="translate(24.121 203.602)" fill="none" stroke="#fff" stroke-linecap="round" stroke-miterlimit="10" stroke-width="2"/>
                <path id="사각형_248" data-name="사각형 248" d="M.711,0H3.456a.71.71,0,0,1,.71.71V7.622a.71.71,0,0,1-.71.71H.711A.711.711,0,0,1,0,7.621V.711A.711.711,0,0,1,.711,0Z" transform="translate(43.029 203.602)" fill="none" stroke="#fff" stroke-linecap="round" stroke-miterlimit="10" stroke-width="2"/>
              </g>
            </g>
          </g>
        </g>
      </g>
    </g>
    <g id="그룹_14332" data-name="그룹 14332" transform="translate(535.294 9445.965)" opacity="0.4">
      <g id="그룹_14331" data-name="그룹 14331">
        <g id="그룹_14330" data-name="그룹 14330" clip-path="url(#clip-path-6)">
          <g id="그룹_14329" data-name="그룹 14329" opacity="0.85">
            <g id="그룹_14328" data-name="그룹 14328">
              <g id="그룹_14327" data-name="그룹 14327" clip-path="url(#clip-path-6)">
                <path id="패스_11625" data-name="패스 11625" d="M605.3,64.607H557.038a1.459,1.459,0,1,1,0-2.918H605.3a1.459,1.459,0,1,1,0,2.918Z" transform="translate(-554.103 -60.909)" fill="none" stroke="#fff" stroke-linecap="round" stroke-linejoin="round" stroke-width="1.5"/>
                <path id="패스_11626" data-name="패스 11626" d="M604.545,118.174l.044,4.283a1.329,1.329,0,0,1-1.329,1.33H553.342a1.329,1.329,0,0,1-1.329-1.33l.334-32.576a1.329,1.329,0,0,1,1.329-1.329h49.248a1.329,1.329,0,0,1,1.329,1.329l.211,20.568" transform="translate(-551.233 -82.533)" fill="none" stroke="#fff" stroke-linecap="round" stroke-linejoin="round" stroke-width="1.5"/>
                <path id="패스_11627" data-name="패스 11627" d="M637.53,88.552V98.768a2.011,2.011,0,0,1-2.011,2.011H608.03a2.011,2.011,0,0,1-2.011-2.011V88.552" transform="translate(-594.707 -82.533)" fill="none" stroke="#fff" stroke-linecap="round" stroke-linejoin="round" stroke-width="1.5"/>
                <rect id="사각형_251" data-name="사각형 251" width="26.929" height="6.586" rx="3.293" transform="translate(13.603 9.283)" fill="none" stroke="#fff" stroke-linecap="round" stroke-linejoin="round" stroke-width="1.5"/>
                <line id="선_181" data-name="선 181" x2="49.073" transform="translate(1.476 22.858)" fill="none" stroke="#fff" stroke-linecap="round" stroke-linejoin="round" stroke-width="1.5"/>
                <path id="패스_11628" data-name="패스 11628" d="M555.17,268.116q1.031.92,2.105,1.791a9.657,9.657,0,0,0,2.928,1.987,4.592,4.592,0,0,0,1.18.131c5.994.135,12,.035,17.995-.032,6.471.066,14.453.059,20.923-.087a4.6,4.6,0,0,0,1.18-.131,9.657,9.657,0,0,0,2.928-1.987q1.073-.87,2.105-1.791" transform="translate(-553.774 -226.982)" fill="none" stroke="#fff" stroke-linecap="round" stroke-linejoin="round" stroke-width="1.5"/>
                <rect id="사각형_252" data-name="사각형 252" width="4.946" height="18.156" transform="translate(10.812 22.858)" fill="none" stroke="#fff" stroke-linecap="round" stroke-linejoin="round" stroke-width="1.5"/>
                <path id="패스_11629" data-name="패스 11629" d="M608.4,187.865a2.473,2.473,0,0,1-4.946,0" transform="translate(-592.642 -162.478)" fill="none" stroke="#fff" stroke-linecap="round" stroke-linejoin="round" stroke-width="1.5"/>
                <rect id="사각형_253" data-name="사각형 253" width="4.946" height="18.156" transform="translate(37.377 22.858)" fill="none" stroke="#fff" stroke-linecap="round" stroke-linejoin="round" stroke-width="1.5"/>
                <path id="패스_11630" data-name="패스 11630" d="M744.617,187.865a2.473,2.473,0,0,1-4.946,0" transform="translate(-702.294 -162.478)" fill="none" stroke="#fff" stroke-linecap="round" stroke-linejoin="round" stroke-width="1.5"/>
                <line id="선_182" data-name="선 182" y2="14.391" transform="translate(27.068 26.623)" fill="none" stroke="#fff" stroke-linecap="round" stroke-linejoin="round" stroke-width="1.5"/>
                <path id="패스_11631" data-name="패스 11631" d="M674.787,122.222h-5.8a.714.714,0,1,1,0-1.429h5.8a.714.714,0,0,1,0,1.429m0-.593h0Z" transform="translate(-644.819 -108.486)" fill="#fff" stroke="#707070" stroke-width="1.5"/>
                <path id="패스_11632" data-name="패스 11632" d="M710.32,122.222H709.2a.714.714,0,0,1,0-1.429h1.121a.714.714,0,1,1,0,1.429m0-.593h0Z" transform="translate(-677.19 -108.486)" fill="#fff" stroke="#707070" stroke-width="1.5"/>
                <path id="패스_11633" data-name="패스 11633" d="M653.893,122.222h-1.121a.714.714,0,1,1,0-1.429h1.121a.714.714,0,0,1,0,1.429m0-.593h0Z" transform="translate(-631.766 -108.486)" fill="#fff" stroke="#707070" stroke-width="1.5"/>
              </g>
            </g>
          </g>
        </g>
      </g>
    </g>
    <g id="그룹_14338" data-name="그룹 14338" transform="translate(443.195 9642.632)" opacity="0.4">
      <g id="그룹_14337" data-name="그룹 14337">
        <g id="그룹_14336" data-name="그룹 14336" clip-path="url(#clip-path-8)">
          <g id="그룹_14335" data-name="그룹 14335" opacity="0.85">
            <g id="그룹_14334" data-name="그룹 14334">
              <g id="그룹_14333" data-name="그룹 14333" clip-path="url(#clip-path-8)">
                <path id="패스_11634" data-name="패스 11634" d="M91.2,719.744v-2.121a1.546,1.546,0,0,1,1.546-1.546h10.266a1.546,1.546,0,0,1,1.546,1.546v23.7a1.546,1.546,0,0,1-1.546,1.546H92.749a1.546,1.546,0,0,1-1.546-1.546V723.1" transform="translate(-85.329 -715.328)" fill="none" stroke="#fff" stroke-linecap="round" stroke-linejoin="round" stroke-width="1.5"/>
                <path id="패스_11635" data-name="패스 11635" d="M158.977,722.98H161.2a.931.931,0,0,1,.93.931v23.453a.931.931,0,0,1-.93.931h-3.263" transform="translate(-137.774 -720.753)" fill="none" stroke="#fff" stroke-linecap="round" stroke-linejoin="round" stroke-width="1.5"/>
                <path id="패스_11636" data-name="패스 11636" d="M71.464,748.294H68.2a.931.931,0,0,1-.931-.93V723.911a.931.931,0,0,1,.931-.931h4.193" transform="translate(-66.521 -720.753)" fill="none" stroke="#fff" stroke-linecap="round" stroke-linejoin="round" stroke-width="1.5"/>
                <rect id="사각형_256" data-name="사각형 256" width="19.062" height="1.964" transform="translate(3.021 27.542)" fill="none" stroke="#fff" stroke-linecap="round" stroke-linejoin="round" stroke-width="1.5"/>
                <path id="패스_11637" data-name="패스 11637" d="M98.309,852.354H82.97a.982.982,0,1,1,0-1.964H98.309a.982.982,0,1,1,0,1.964Z" transform="translate(-78.087 -820.884)" fill="none" stroke="#fff" stroke-linecap="round" stroke-linejoin="round" stroke-width="1.5"/>
                <rect id="사각형_257" data-name="사각형 257" width="9.062" height="20.245" transform="translate(8.021 7.297)" fill="none" stroke="#fff" stroke-linecap="round" stroke-linejoin="round" stroke-width="1.5"/>
                <path id="패스_11638" data-name="패스 11638" d="M108.084,825.668a1.048,1.048,0,1,1,1.048,1.048,1.048,1.048,0,0,1-1.048-1.048" transform="translate(-98.596 -800.631)" fill="#fff" stroke="#707070" stroke-width="1.5"/>
                <line id="선_183" data-name="선 183" x2="7.071" transform="translate(8.021 22.697)" fill="none" stroke="#fff" stroke-linecap="round" stroke-linejoin="round" stroke-width="1.5"/>
                <path id="패스_11639" data-name="패스 11639" d="M92.882,859.564l.887.492a1.669,1.669,0,0,1,.859,1.459v.8a.779.779,0,0,1-.779.779H74.612a.779.779,0,0,1-.779-.779v-.8a1.669,1.669,0,0,1,.859-1.459l.887-.492" transform="translate(-71.678 -828.094)" fill="none" stroke="#fff" stroke-linecap="round" stroke-linejoin="round" stroke-width="1.5"/>
                <path id="패스_11640" data-name="패스 11640" d="M97.557,876.261l-.364,18.288a.985.985,0,0,1-.728.93,33.962,33.962,0,0,1-8.29.686,33.963,33.963,0,0,1-8.29-.686.985.985,0,0,1-.728-.93l-.3-15.288" transform="translate(-75.622 -841.216)" fill="none" stroke="#fff" stroke-linecap="round" stroke-linejoin="round" stroke-width="1.5"/>
                <path id="패스_11641" data-name="패스 11641" d="M96.251,937.01a45.8,45.8,0,0,1-6.958.412,33.975,33.975,0,0,1-8.29-.686.985.985,0,0,1-.728-.931" transform="translate(-76.74 -888.011)" fill="none" stroke="#fff" stroke-linecap="round" stroke-linejoin="round" stroke-width="1.5"/>
                <path id="패스_11642" data-name="패스 11642" d="M169.674,864.4H172.5a.7.7,0,0,1,.7.7v1.139a.7.7,0,0,1-.7.7h-2.822" transform="translate(-147 -831.893)" fill="none" stroke="#fff" stroke-linecap="round" stroke-linejoin="round" stroke-width="1.5"/>
                <path id="패스_11643" data-name="패스 11643" d="M169.259,876.261l3.6,1.507A1.859,1.859,0,0,1,174,879.55l-.341,9.511a.917.917,0,0,1-.917.884h-1.195a.917.917,0,0,1-.915-.851l-.558-7.73a1.6,1.6,0,0,0-1.7-1.486l-2.823.168" transform="translate(-143.763 -841.216)" fill="none" stroke="#fff" stroke-linecap="round" stroke-linejoin="round" stroke-width="1.5"/>
                <path id="패스_11644" data-name="패스 11644" d="M73.28,959.5h-.754a1.14,1.14,0,0,0-1.14,1.14v4.005a1.14,1.14,0,0,0,1.14,1.14,38.961,38.961,0,0,0,9.781,1.034,38.96,38.96,0,0,0,9.781-1.034,1.14,1.14,0,0,0,1.14-1.14v-4.005a1.14,1.14,0,0,0-1.14-1.14h-.754" transform="translate(-69.755 -906.636)" fill="none" stroke="#fff" stroke-linecap="round" stroke-linejoin="round" stroke-width="1.5"/>
                <path id="패스_11645" data-name="패스 11645" d="M110.754,906.079H107.12a1.85,1.85,0,1,1,0-3.7h3.634a1.85,1.85,0,1,1,0,3.7Z" transform="translate(-96.385 -861.743)" fill="none" stroke="#fff" stroke-linecap="round" stroke-linejoin="round" stroke-width="1.5"/>
              </g>
            </g>
          </g>
        </g>
      </g>
    </g>
    <g id="그룹_14344" data-name="그룹 14344" transform="translate(351.5 9613.456)" opacity="0.4">
      <g id="그룹_14343" data-name="그룹 14343">
        <g id="그룹_14342" data-name="그룹 14342" clip-path="url(#clip-path-10)">
          <g id="그룹_14341" data-name="그룹 14341" opacity="0.85">
            <g id="그룹_14340" data-name="그룹 14340">
              <g id="그룹_14339" data-name="그룹 14339" clip-path="url(#clip-path-10)">
                <path id="패스_11646" data-name="패스 11646" d="M426.109,797.2a1.765,1.765,0,1,1,1.764,1.764,1.764,1.764,0,0,1-1.764-1.764" transform="translate(-395.961 -732.283)" fill="#fff" stroke="#707070" stroke-width="2"/>
                <path id="패스_11647" data-name="패스 11647" d="M392.407,917.2c14.729.879,26.044,6.1,26.044,12.407,0,6.924-13.632,12.537-30.448,12.537s-30.448-5.613-30.448-12.537c0-6.3,11.271-11.508,25.958-12.4" transform="translate(-356.091 -803.103)" fill="none" stroke="#fff" stroke-linecap="round" stroke-linejoin="round" stroke-width="2"/>
                <path id="패스_11648" data-name="패스 11648" d="M420.469,816.9V839s4.367,2.75,8.249,0V763.22" transform="translate(-392.681 -713.547)" fill="none" stroke="#fff" stroke-linecap="round" stroke-linejoin="round" stroke-width="2"/>
                <line id="선_184" data-name="선 184" y2="41.167" transform="translate(27.788 49.673)" fill="none" stroke="#fff" stroke-linecap="round" stroke-linejoin="round" stroke-width="2"/>
                <path id="패스_11649" data-name="패스 11649" d="M386.611,696.145c0-3.923,1.957-7.1,4.371-7.1s4.371,3.18,4.371,7.1-1.957,7.1-4.371,7.1-4.371-3.18-4.371-7.1" transform="translate(-372.989 -670.406)" fill="#fff" stroke="#707070" stroke-width="2"/>
                <ellipse id="타원_59" data-name="타원 59" cx="8.911" cy="14.479" rx="8.911" ry="14.479" transform="translate(9.082 11.26)" fill="none" stroke="#fff" stroke-linecap="round" stroke-linejoin="round" stroke-width="2"/>
                <path id="패스_11650" data-name="패스 11650" d="M470.646,660.1c5.462,1.08,9.724,10.055,9.724,20.968,0,11.641-4.849,21.077-10.832,21.077" transform="translate(-421.219 -653.572)" fill="none" stroke="#fff" stroke-linecap="round" stroke-linejoin="round" stroke-width="2"/>
                <path id="패스_11651" data-name="패스 11651" d="M390.451,664.516a38.278,38.278,0,0,1,.78,7.759c0,13.407-6.689,24.275-14.94,24.275s-14.94-10.868-14.94-24.275S368.04,648,376.291,648c4.911,0,9.269,3.851,11.992,9.8" transform="translate(-358.298 -646.536)" fill="none" stroke="#fff" stroke-linecap="round" stroke-linejoin="round" stroke-width="2"/>
                <line id="선_185" data-name="선 185" x2="29.786" y2="4.94" transform="translate(19.698 1.617)" fill="none" stroke="#fff" stroke-linecap="round" stroke-linejoin="round" stroke-width="2"/>
                <line id="선_186" data-name="선 186" x1="30.327" y2="1.443" transform="translate(17.992 48.571)" fill="none" stroke="#fff" stroke-linecap="round" stroke-linejoin="round" stroke-width="2"/>
              </g>
            </g>
          </g>
        </g>
      </g>
    </g>
  </g>
</svg>
