<svg xmlns="http://www.w3.org/2000/svg" width="18.888" height="62.486" viewBox="0 0 18.888 62.486">
  <g id="product_ico8" transform="translate(0.5 0.5)" opacity="0.85">
    <path id="패스_11476" data-name="패스 11476" d="M-4212.8-1008.843v5.766a13.393,13.393,0,0,0,.29,2.769l.291,1.371v2.112h-3.925v-2.112l.285-1.523a13.4,13.4,0,0,0,.227-2.455v-15.957a3.553,3.553,0,0,0-.65-2.049h0a3.553,3.553,0,0,1-.65-2.049v-16.57a3.552,3.552,0,0,1,.2-1.173l.682-1.951a3.556,3.556,0,0,0,.2-1.173v-7.172a1.638,1.638,0,0,1,1.606-1.638,1.664,1.664,0,0,1,1.67,1.67v7.14a3.552,3.552,0,0,0,.2,1.173l.682,1.951a3.552,3.552,0,0,1,.2,1.173v16.57a3.553,3.553,0,0,1-.65,2.049h0a3.553,3.553,0,0,0-.65,2.049v7.633" transform="translate(4223.124 1052.647)" fill="none" stroke="#fff" stroke-linecap="round" stroke-miterlimit="10" stroke-width="1"/>
    <circle id="타원_34" data-name="타원 34" cx="0.797" cy="0.797" r="0.797" transform="translate(8.112 9.185)" fill="#fff"/>
    <path id="패스_11477" data-name="패스 11477" d="M-4194.339-880.508a1.117,1.117,0,0,0-1.117,1.117v15.315a1.117,1.117,0,0,0,1.117,1.117,1.117,1.117,0,0,0,1.117-1.117v-15.315A1.117,1.117,0,0,0-4194.339-880.508Z" transform="translate(4203.249 893.333)" fill="none" stroke="#fff" stroke-linecap="round" stroke-miterlimit="10" stroke-width="1"/>
    <line id="선_138" data-name="선 138" x2="1.761" transform="translate(7.945 27.294)" fill="none" stroke="#fff" stroke-linecap="round" stroke-miterlimit="10" stroke-width="1"/>
    <line id="선_139" data-name="선 139" x2="2.569" transform="translate(7.625 50.211)" fill="none" stroke="#fff" stroke-linecap="round" stroke-miterlimit="10" stroke-width="1"/>
    <line id="선_140" data-name="선 140" x2="17.888" transform="translate(0 57.909)" fill="none" stroke="#fff" stroke-linecap="round" stroke-miterlimit="10" stroke-width="1"/>
    <path id="패스_11478" data-name="패스 11478" d="M-4283.458-302.657h-15.294a1.057,1.057,0,0,0-1.018.688h0a5.386,5.386,0,0,0-.279,1.709v2.646a.6.6,0,0,0,.622.568h16.645a.6.6,0,0,0,.622-.568v-2.646a5.386,5.386,0,0,0-.279-1.709h0A1.057,1.057,0,0,0-4283.458-302.657Z" transform="translate(4300.05 358.533)" fill="none" stroke="#fff" stroke-linecap="round" stroke-miterlimit="10" stroke-width="1"/>
    <g id="그룹_14183" data-name="그룹 14183" transform="translate(5.019 54.168)">
      <rect id="사각형_182" data-name="사각형 182" width="0.854" height="1.707" rx="0.427" transform="translate(0 0)" fill="none" stroke="#fff" stroke-linecap="round" stroke-miterlimit="10" stroke-width="1"/>
      <rect id="사각형_183" data-name="사각형 183" width="0.854" height="1.707" rx="0.427" transform="translate(6.997 0)" fill="none" stroke="#fff" stroke-linecap="round" stroke-miterlimit="10" stroke-width="1"/>
    </g>
    <g id="그룹_14184" data-name="그룹 14184" transform="translate(5.872 53.658)">
      <rect id="사각형_184" data-name="사각형 184" width="1.109" height="2.218" rx="0.555" fill="none" stroke="#fff" stroke-linecap="round" stroke-miterlimit="10" stroke-width="1"/>
      <rect id="사각형_185" data-name="사각형 185" width="1.109" height="2.218" rx="0.555" transform="translate(5.034)" fill="none" stroke="#fff" stroke-linecap="round" stroke-miterlimit="10" stroke-width="1"/>
    </g>
  </g>
</svg>
