<svg xmlns="http://www.w3.org/2000/svg" width="30.988" height="57.423" viewBox="0 0 30.988 57.423">
  <g id="product_ico2" transform="translate(0.5 0.5)" opacity="0.85">
    <path id="패스_11505" data-name="패스 11505" d="M-5473.206-1015.22l-24.085.08a.584.584,0,0,1-.591-.576v-1.151a.584.584,0,0,1,.591-.576l24.085-.08a.584.584,0,0,1,.591.576v1.151A.583.583,0,0,1-5473.206-1015.22Z" transform="translate(5502.604 1017.523)" fill="none" stroke="#fff" stroke-linecap="round" stroke-linejoin="round" stroke-width="1"/>
    <path id="패스_11506" data-name="패스 11506" d="M-5561.257-1007.937v41.7a1.024,1.024,0,0,0,.239.657l4.439,5.314.044-56.172-3.8.382a1.025,1.025,0,0,0-.923,1.02v2.082" transform="translate(5561.257 1016.523)" fill="none" stroke="#fff" stroke-linecap="round" stroke-linejoin="round" stroke-width="1"/>
    <path id="패스_11507" data-name="패스 11507" d="M-5498.472-932.661l24.672-1.264.006-52.686" transform="translate(5503.15 988.914)" fill="none" stroke="#fff" stroke-linecap="round" stroke-linejoin="round" stroke-width="1"/>
    <path id="패스_11508" data-name="패스 11508" d="M-5448.758-955.823l0,48.277-20.29,1.039v-49.167Z" transform="translate(5475.922 960.42)" fill="none" stroke="#fff" stroke-linecap="round" stroke-linejoin="round" stroke-width="1"/>
    <line id="선_146" data-name="선 146" y1="0.784" x2="20.025" transform="translate(7.022 45.136)" fill="none" stroke="#fff" stroke-linecap="round" stroke-linejoin="round" stroke-width="1"/>
    <line id="선_147" data-name="선 147" y1="0.598" x2="20.025" transform="translate(7.022 37.073)" fill="none" stroke="#fff" stroke-linecap="round" stroke-linejoin="round" stroke-width="1"/>
    <line id="선_148" data-name="선 148" y1="0.598" x2="20.025" transform="translate(7.022 29.009)" fill="none" stroke="#fff" stroke-linecap="round" stroke-linejoin="round" stroke-width="1"/>
    <line id="선_149" data-name="선 149" y1="0.412" x2="20.025" transform="translate(7.022 20.945)" fill="none" stroke="#fff" stroke-linecap="round" stroke-linejoin="round" stroke-width="1"/>
    <line id="선_150" data-name="선 150" y1="0.337" x2="20.025" transform="translate(7.022 12.881)" fill="none" stroke="#fff" stroke-linecap="round" stroke-linejoin="round" stroke-width="1"/>
    <line id="선_151" data-name="선 151" y1="1.891" x2="1.784" transform="translate(27.164 2.705)" fill="none" stroke="#fff" stroke-linecap="round" stroke-linejoin="round" stroke-width="1"/>
    <line id="선_152" data-name="선 152" x1="2.148" y1="2.362" transform="translate(4.722 2.383)" fill="none" stroke="#fff" stroke-linecap="round" stroke-linejoin="round" stroke-width="1"/>
    <line id="선_153" data-name="선 153" x1="2.192" y2="2.303" transform="translate(4.678 53.913)" fill="none" stroke="#fff" stroke-linecap="round" stroke-linejoin="round" stroke-width="1"/>
    <line id="선_154" data-name="선 154" x2="2.191" y2="2.115" transform="translate(27.159 52.874)" fill="none" stroke="#fff" stroke-linecap="round" stroke-linejoin="round" stroke-width="1"/>
    <g id="그룹_14215" data-name="그룹 14215" transform="translate(7.022 17.76)">
      <g id="그룹_14214" data-name="그룹 14214">
        <g id="그룹_14212" data-name="그룹 14212" transform="translate(4.777)">
          <ellipse id="타원_37" data-name="타원 37" cx="0.762" cy="0.736" rx="0.762" ry="0.736" transform="translate(4.473 1.63) rotate(-45.5)" fill="#fff" stroke="#fff" stroke-width="1"/>
          <path id="패스_11509" data-name="패스 11509" d="M-5371.729-776.515a1.6,1.6,0,0,1-.283-.916,1.728,1.728,0,0,1,1.657-1.714,1.589,1.589,0,0,1,1.657,1.6,1.728,1.728,0,0,1-1.657,1.714" transform="translate(5374.313 779.147)" fill="none" stroke="#fff" stroke-linecap="round" stroke-linejoin="round" stroke-width="1"/>
          <path id="패스_11510" data-name="패스 11510" d="M-5348-767.667a.782.782,0,0,0-.75.776.719.719,0,0,0,.75.723l.749-.026v-1.5Z" transform="translate(5352.781 768.546)" fill="none" stroke="#fff" stroke-linecap="round" stroke-linejoin="round" stroke-width="1"/>
          <path id="패스_11511" data-name="패스 11511" d="M-5399.27-734.541v.008l3.687-.129" transform="translate(5399.54 737.976)" fill="none" stroke="#fff" stroke-linecap="round" stroke-linejoin="round" stroke-width="1"/>
          <path id="패스_11512" data-name="패스 11512" d="M-5398.938-779.133l-3.531.123a1.686,1.686,0,0,0-.426.07" transform="translate(5402.896 779.134)" fill="none" stroke="#fff" stroke-linecap="round" stroke-linejoin="round" stroke-width="1"/>
        </g>
        <g id="그룹_14213" data-name="그룹 14213" transform="translate(0 0.153)">
          <ellipse id="타원_38" data-name="타원 38" cx="0.762" cy="0.736" rx="0.762" ry="0.736" transform="translate(4.868 1.63) rotate(-45.5)" fill="#fff" stroke="#fff" stroke-width="1"/>
          <path id="패스_11513" data-name="패스 11513" d="M-5430.6-774.534a1.606,1.606,0,0,1-.235-.844,1.728,1.728,0,0,1,1.656-1.714,1.589,1.589,0,0,1,1.657,1.6,1.728,1.728,0,0,1-1.657,1.714" transform="translate(5433.528 777.093)" fill="none" stroke="#fff" stroke-linecap="round" stroke-linejoin="round" stroke-width="1"/>
          <path id="패스_11514" data-name="패스 11514" d="M-5406.819-765.613a.782.782,0,0,0-.75.775.719.719,0,0,0,.75.723l.749-.026v-1.5Z" transform="translate(5411.998 766.492)" fill="none" stroke="#fff" stroke-linecap="round" stroke-linejoin="round" stroke-width="1"/>
          <path id="패스_11515" data-name="패스 11515" d="M-5467.012-732.463l.665-.015,3.687-.129" transform="translate(5467.012 735.922)" fill="none" stroke="#fff" stroke-linecap="round" stroke-linejoin="round" stroke-width="1"/>
          <path id="패스_11516" data-name="패스 11516" d="M-5462.66-777.079l-3.531.123a1.7,1.7,0,0,0-.821.246" transform="translate(5467.012 777.08)" fill="none" stroke="#fff" stroke-linecap="round" stroke-linejoin="round" stroke-width="1"/>
        </g>
      </g>
    </g>
    <g id="그룹_14219" data-name="그룹 14219" transform="translate(14.38 25.611)">
      <g id="그룹_14218" data-name="그룹 14218">
        <g id="그룹_14216" data-name="그룹 14216" transform="translate(4.382)">
          <ellipse id="타원_39" data-name="타원 39" cx="0.762" cy="0.736" rx="0.762" ry="0.736" transform="translate(4.473 1.63) rotate(-45.5)" fill="#fff" stroke="#fff" stroke-width="1"/>
          <path id="패스_11517" data-name="패스 11517" d="M-5278.256-671.136a1.6,1.6,0,0,1-.283-.916,1.728,1.728,0,0,1,1.656-1.714,1.589,1.589,0,0,1,1.657,1.6,1.728,1.728,0,0,1-1.657,1.714" transform="translate(5280.84 673.768)" fill="none" stroke="#fff" stroke-linecap="round" stroke-linejoin="round" stroke-width="1"/>
          <path id="패스_11518" data-name="패스 11518" d="M-5254.525-662.288a.782.782,0,0,0-.75.775.719.719,0,0,0,.75.723l.749-.026v-1.5Z" transform="translate(5259.309 663.167)" fill="none" stroke="#fff" stroke-linecap="round" stroke-linejoin="round" stroke-width="1"/>
          <line id="선_155" data-name="선 155" y1="0.129" x2="3.687" transform="translate(0.27 3.314)" fill="none" stroke="#fff" stroke-linecap="round" stroke-linejoin="round" stroke-width="1"/>
          <path id="패스_11519" data-name="패스 11519" d="M-5305.467-673.755l-3.531.123a1.683,1.683,0,0,0-.426.07" transform="translate(5309.425 673.756)" fill="none" stroke="#fff" stroke-linecap="round" stroke-linejoin="round" stroke-width="1"/>
        </g>
        <g id="그룹_14217" data-name="그룹 14217" transform="translate(0 0.153)">
          <ellipse id="타원_40" data-name="타원 40" cx="0.762" cy="0.736" rx="0.762" ry="0.736" transform="translate(4.473 1.63) rotate(-45.5)" fill="#fff" stroke="#fff" stroke-width="1"/>
          <path id="패스_11520" data-name="패스 11520" d="M-5337.077-669.082a1.6,1.6,0,0,1-.283-.916,1.728,1.728,0,0,1,1.657-1.714,1.589,1.589,0,0,1,1.656,1.6,1.728,1.728,0,0,1-1.656,1.714" transform="translate(5339.661 671.714)" fill="none" stroke="#fff" stroke-linecap="round" stroke-linejoin="round" stroke-width="1"/>
          <path id="패스_11521" data-name="패스 11521" d="M-5313.346-660.234a.782.782,0,0,0-.75.776.719.719,0,0,0,.75.723l.75-.026v-1.5Z" transform="translate(5318.13 661.113)" fill="none" stroke="#fff" stroke-linecap="round" stroke-linejoin="round" stroke-width="1"/>
          <path id="패스_11522" data-name="패스 11522" d="M-5364.617-627.108v.008l3.687-.129" transform="translate(5364.888 630.543)" fill="none" stroke="#fff" stroke-linecap="round" stroke-linejoin="round" stroke-width="1"/>
          <path id="패스_11523" data-name="패스 11523" d="M-5364.287-671.7l-3.531.123a1.688,1.688,0,0,0-.426.07" transform="translate(5368.244 671.702)" fill="none" stroke="#fff" stroke-linecap="round" stroke-linejoin="round" stroke-width="1"/>
        </g>
      </g>
    </g>
    <g id="그룹_14222" data-name="그룹 14222" transform="translate(14.098 41.787)">
      <g id="그룹_14221" data-name="그룹 14221">
        <g id="그룹_14220" data-name="그룹 14220">
          <ellipse id="타원_41" data-name="타원 41" cx="0.762" cy="0.736" rx="0.762" ry="0.736" transform="translate(4.473 1.63) rotate(-45.5)" fill="#fff" stroke="#fff" stroke-width="1"/>
          <path id="패스_11524" data-name="패스 11524" d="M-5340.862-454a1.6,1.6,0,0,1-.283-.916,1.728,1.728,0,0,1,1.657-1.714,1.589,1.589,0,0,1,1.657,1.6,1.728,1.728,0,0,1-1.657,1.714" transform="translate(5343.446 456.636)" fill="none" stroke="#fff" stroke-linecap="round" stroke-linejoin="round" stroke-width="1"/>
          <path id="패스_11525" data-name="패스 11525" d="M-5317.131-445.156a.782.782,0,0,0-.749.775.719.719,0,0,0,.749.723l.75-.026v-1.5Z" transform="translate(5321.914 446.035)" fill="none" stroke="#fff" stroke-linecap="round" stroke-linejoin="round" stroke-width="1"/>
          <line id="선_156" data-name="선 156" y1="0.129" x2="3.687" transform="translate(0.27 3.314)" fill="none" stroke="#fff" stroke-linecap="round" stroke-linejoin="round" stroke-width="1"/>
          <path id="패스_11526" data-name="패스 11526" d="M-5368.073-456.622l-3.531.123a1.681,1.681,0,0,0-.426.07" transform="translate(5372.031 456.623)" fill="none" stroke="#fff" stroke-linecap="round" stroke-linejoin="round" stroke-width="1"/>
        </g>
      </g>
    </g>
    <g id="그룹_14229" data-name="그룹 14229" transform="translate(6.866 9.109)">
      <g id="그룹_14227" data-name="그룹 14227">
        <g id="그룹_14224" data-name="그룹 14224" transform="translate(13.7)">
          <g id="그룹_14223" data-name="그룹 14223">
            <ellipse id="타원_42" data-name="타원 42" cx="0.762" cy="0.736" rx="0.762" ry="0.736" transform="translate(4.435 1.642) rotate(-44.054)" fill="#fff" stroke="#fff" stroke-width="1"/>
            <path id="패스_11527" data-name="패스 11527" d="M-5254.609-892.667a1.606,1.606,0,0,1-.26-.923,1.729,1.729,0,0,1,1.7-1.672,1.589,1.589,0,0,1,1.616,1.64,1.729,1.729,0,0,1-1.7,1.672" transform="translate(5257.13 895.262)" fill="none" stroke="#fff" stroke-linecap="round" stroke-linejoin="round" stroke-width="1"/>
            <path id="패스_11528" data-name="패스 11528" d="M-5230.819-883.284a.782.782,0,0,0-.769.756.719.719,0,0,0,.731.742l.75-.007.038-1.5Z" transform="translate(5235.583 884.183)" fill="none" stroke="#fff" stroke-linecap="round" stroke-linejoin="round" stroke-width="1"/>
            <line id="선_157" data-name="선 157" y1="0.036" x2="3.689" transform="translate(0.187 3.312)" fill="none" stroke="#fff" stroke-linecap="round" stroke-linejoin="round" stroke-width="1"/>
            <path id="패스_11529" data-name="패스 11529" d="M-5281.251-895.261l-3.534.034a1.681,1.681,0,0,0-.427.059" transform="translate(5285.212 895.261)" fill="none" stroke="#fff" stroke-linecap="round" stroke-linejoin="round" stroke-width="1"/>
          </g>
        </g>
        <g id="그룹_14226" data-name="그룹 14226" transform="translate(0 0.171)">
          <g id="그룹_14225" data-name="그룹 14225">
            <ellipse id="타원_43" data-name="타원 43" cx="0.762" cy="0.736" rx="0.762" ry="0.736" transform="translate(2.981 1.642) rotate(-44.054)" fill="#fff" stroke="#fff" stroke-width="1"/>
            <path id="패스_11530" data-name="패스 11530" d="M-5458.065-890.45a1.608,1.608,0,0,1-.214-.849,1.728,1.728,0,0,1,1.7-1.672,1.589,1.589,0,0,1,1.616,1.64,1.728,1.728,0,0,1-1.7,1.672" transform="translate(5459.086 892.971)" fill="none" stroke="#fff" stroke-linecap="round" stroke-linejoin="round" stroke-width="1"/>
            <path id="패스_11531" data-name="패스 11531" d="M-5434.229-880.992a.782.782,0,0,0-.769.756.718.718,0,0,0,.73.742l.75-.007.038-1.5Z" transform="translate(5437.539 881.891)" fill="none" stroke="#fff" stroke-linecap="round" stroke-linejoin="round" stroke-width="1"/>
            <line id="선_158" data-name="선 158" y1="0.023" x2="2.423" transform="translate(0 3.312)" fill="none" stroke="#fff" stroke-linecap="round" stroke-linejoin="round" stroke-width="1"/>
            <line id="선_159" data-name="선 159" x1="2.423" y2="0.023" transform="translate(0.084 0)" fill="none" stroke="#fff" stroke-linecap="round" stroke-linejoin="round" stroke-width="1"/>
          </g>
        </g>
      </g>
      <g id="그룹_14228" data-name="그룹 14228" transform="translate(8.005 0.111)">
        <circle id="타원_44" data-name="타원 44" cx="0.749" cy="0.749" r="0.749" transform="translate(6.014 0.907)" fill="#fff" stroke="#fff" stroke-width="1"/>
        <path id="패스_11532" data-name="패스 11532" d="M-5314.021-891.259a1.65,1.65,0,0,1-.235-.852,1.657,1.657,0,0,1,1.657-1.657,1.657,1.657,0,0,1,1.656,1.657,1.657,1.657,0,0,1-1.656,1.657" transform="translate(5317.788 893.767)" fill="none" stroke="#fff" stroke-linecap="round" stroke-linejoin="round" stroke-width="1"/>
        <path id="패스_11533" data-name="패스 11533" d="M-5290.243-881.588a.749.749,0,0,0-.749.749.749.749,0,0,0,.749.749h.75v-1.5Z" transform="translate(5296.257 882.495)" fill="none" stroke="#fff" stroke-linecap="round" stroke-linejoin="round" stroke-width="1"/>
        <path id="패스_11534" data-name="패스 11534" d="M-5356.469-893.767H-5360a1.657,1.657,0,0,0-1.657,1.657,1.656,1.656,0,0,0,1.5,1.649v.008h3.687" transform="translate(5361.657 893.767)" fill="none" stroke="#fff" stroke-linecap="round" stroke-linejoin="round" stroke-width="1"/>
      </g>
    </g>
    <g id="그룹_14235" data-name="그룹 14235" transform="translate(7.152 33.434)">
      <g id="그룹_14233" data-name="그룹 14233" transform="translate(0 0.361)">
        <g id="그룹_14232" data-name="그룹 14232">
          <g id="그룹_14230" data-name="그룹 14230" transform="translate(2.846)">
            <ellipse id="타원_45" data-name="타원 45" cx="0.762" cy="0.736" rx="0.762" ry="0.736" transform="matrix(0.697, -0.717, 0.717, 0.697, 4.481, 1.628)" fill="#fff" stroke="#fff" stroke-width="1"/>
            <path id="패스_11535" data-name="패스 11535" d="M-5395.773-561.276a1.6,1.6,0,0,1-.288-.915,1.729,1.729,0,0,1,1.647-1.724,1.589,1.589,0,0,1,1.666,1.589,1.728,1.728,0,0,1-1.647,1.724" transform="translate(5398.371 563.916)" fill="none" stroke="#fff" stroke-linecap="round" stroke-linejoin="round" stroke-width="1"/>
            <path id="패스_11536" data-name="패스 11536" d="M-5372.056-552.546a.782.782,0,0,0-.745.78.719.719,0,0,0,.753.719l.749-.03-.008-1.5Z" transform="translate(5376.843 553.421)" fill="none" stroke="#fff" stroke-linecap="round" stroke-linejoin="round" stroke-width="1"/>
            <path id="패스_11537" data-name="패스 11537" d="M-5423.187-519.284v.008l3.687-.149" transform="translate(5423.476 522.74)" fill="none" stroke="#fff" stroke-linecap="round" stroke-linejoin="round" stroke-width="1"/>
            <path id="패스_11538" data-name="패스 11538" d="M-5423.1-563.9l-3.531.143a1.689,1.689,0,0,0-.426.073" transform="translate(5427.059 563.898)" fill="none" stroke="#fff" stroke-linecap="round" stroke-linejoin="round" stroke-width="1"/>
          </g>
          <g id="그룹_14231" data-name="그룹 14231" transform="translate(0 0.178)">
            <ellipse id="타원_46" data-name="타원 46" cx="0.762" cy="0.736" rx="0.762" ry="0.736" transform="matrix(0.697, -0.717, 0.717, 0.697, 2.946, 1.628)" fill="#fff" stroke="#fff" stroke-width="1"/>
            <path id="패스_11539" data-name="패스 11539" d="M-5454.63-558.963a1.607,1.607,0,0,1-.24-.842,1.728,1.728,0,0,1,1.647-1.724,1.589,1.589,0,0,1,1.666,1.589,1.728,1.728,0,0,1-1.647,1.724" transform="translate(5455.645 561.531)" fill="none" stroke="#fff" stroke-linecap="round" stroke-linejoin="round" stroke-width="1"/>
            <path id="패스_11540" data-name="패스 11540" d="M-5430.865-550.161a.782.782,0,0,0-.745.78.719.719,0,0,0,.753.719l.749-.03-.008-1.5Z" transform="translate(5434.117 551.036)" fill="none" stroke="#fff" stroke-linecap="round" stroke-linejoin="round" stroke-width="1"/>
            <line id="선_160" data-name="선 160" y1="0.098" x2="2.421" transform="translate(0.019 3.315)" fill="none" stroke="#fff" stroke-linecap="round" stroke-linejoin="round" stroke-width="1"/>
            <line id="선_161" data-name="선 161" x1="2.421" y2="0.098" transform="translate(0 0.001)" fill="none" stroke="#fff" stroke-linecap="round" stroke-linejoin="round" stroke-width="1"/>
          </g>
        </g>
      </g>
      <g id="그룹_14234" data-name="그룹 14234" transform="translate(10.611)">
        <circle id="타원_47" data-name="타원 47" cx="0.749" cy="0.749" r="0.749" transform="translate(6.012 0.859)" fill="#fff" stroke="#fff" stroke-width="1"/>
        <path id="패스_11541" data-name="패스 11541" d="M-5275.2-566.208a1.649,1.649,0,0,1-.262-.844,1.657,1.657,0,0,1,1.6-1.707,1.656,1.656,0,0,1,1.707,1.6,1.656,1.656,0,0,1-1.6,1.707" transform="translate(5278.99 568.76)" fill="none" stroke="#fff" stroke-linecap="round" stroke-linejoin="round" stroke-width="1"/>
        <path id="패스_11542" data-name="패스 11542" d="M-5251.474-557.206a.749.749,0,0,0-.726.772.749.749,0,0,0,.772.726l.749-.023-.046-1.5Z" transform="translate(5257.463 558.088)" fill="none" stroke="#fff" stroke-linecap="round" stroke-linejoin="round" stroke-width="1"/>
        <path id="패스_11543" data-name="패스 11543" d="M-5317.7-568.749l-3.53.109a1.657,1.657,0,0,0-1.6,1.707,1.657,1.657,0,0,0,1.551,1.6v.008l3.686-.114" transform="translate(5322.837 568.75)" fill="none" stroke="#fff" stroke-linecap="round" stroke-linejoin="round" stroke-width="1"/>
      </g>
    </g>
    <g id="그룹_14236" data-name="그룹 14236" transform="translate(19.25 17.485)">
      <circle id="타원_48" data-name="타원 48" cx="0.749" cy="0.749" r="0.749" transform="translate(6.01 0.849)" fill="#fff" stroke="#fff" stroke-width="1"/>
      <path id="패스_11544" data-name="패스 11544" d="M-5255.24-780.27a1.655,1.655,0,0,1-.267-.843,1.657,1.657,0,0,1,1.594-1.717,1.657,1.657,0,0,1,1.717,1.594,1.657,1.657,0,0,1-1.594,1.717" transform="translate(5259.037 782.831)" fill="none" stroke="#fff" stroke-linecap="round" stroke-linejoin="round" stroke-width="1"/>
      <path id="패스_11545" data-name="패스 11545" d="M-5231.529-771.4a.749.749,0,0,0-.721.776.749.749,0,0,0,.776.721l.749-.028-.055-1.5Z" transform="translate(5237.512 772.275)" fill="none" stroke="#fff" stroke-linecap="round" stroke-linejoin="round" stroke-width="1"/>
      <path id="패스_11546" data-name="패스 11546" d="M-5297.751-782.815l-3.529.13a1.657,1.657,0,0,0-1.594,1.717,1.656,1.656,0,0,0,1.561,1.592v.008l3.685-.136" transform="translate(5302.875 782.816)" fill="none" stroke="#fff" stroke-linecap="round" stroke-linejoin="round" stroke-width="1"/>
    </g>
    <g id="그룹_14242" data-name="그룹 14242" transform="translate(7.192 49.514)">
      <g id="그룹_14240" data-name="그룹 14240">
        <g id="그룹_14239" data-name="그룹 14239">
          <g id="그룹_14237" data-name="그룹 14237" transform="translate(11.604)">
            <ellipse id="타원_49" data-name="타원 49" cx="0.762" cy="0.736" rx="0.762" ry="0.736" transform="matrix(0.689, -0.725, 0.725, 0.689, 4.496, 1.623)" fill="#fff" stroke="#fff" stroke-width="1"/>
            <path id="패스_11547" data-name="패스 11547" d="M-5277.461-350.27a1.605,1.605,0,0,1-.3-.911,1.729,1.729,0,0,1,1.627-1.742,1.589,1.589,0,0,1,1.684,1.57,1.729,1.729,0,0,1-1.627,1.742" transform="translate(5280.085 352.927)" fill="none" stroke="#fff" stroke-linecap="round" stroke-linejoin="round" stroke-width="1"/>
            <path id="패스_11548" data-name="패스 11548" d="M-5253.773-341.778a.782.782,0,0,0-.736.788.719.719,0,0,0,.762.71l.749-.039-.025-1.5Z" transform="translate(5258.567 342.645)" fill="none" stroke="#fff" stroke-linecap="round" stroke-linejoin="round" stroke-width="1"/>
            <line id="선_162" data-name="선 162" y1="0.191" x2="3.685" transform="translate(0.325 3.315)" fill="none" stroke="#fff" stroke-linecap="round" stroke-linejoin="round" stroke-width="1"/>
            <path id="패스_11549" data-name="패스 11549" d="M-5305.021-352.9l-3.529.183a1.687,1.687,0,0,0-.424.077" transform="translate(5308.974 352.898)" fill="none" stroke="#fff" stroke-linecap="round" stroke-linejoin="round" stroke-width="1"/>
          </g>
          <g id="그룹_14238" data-name="그룹 14238" transform="translate(0 0.682)">
            <ellipse id="타원_50" data-name="타원 50" cx="0.762" cy="0.736" rx="0.762" ry="0.736" transform="matrix(0.689, -0.725, 0.725, 0.689, 2.963, 1.623)" fill="#fff" stroke="#fff" stroke-width="1"/>
            <path id="패스_11550" data-name="패스 11550" d="M-5453.844-341.185a1.609,1.609,0,0,1-.25-.839,1.728,1.728,0,0,1,1.627-1.742,1.589,1.589,0,0,1,1.684,1.57,1.729,1.729,0,0,1-1.627,1.742" transform="translate(5454.886 343.769)" fill="none" stroke="#fff" stroke-linecap="round" stroke-linejoin="round" stroke-width="1"/>
            <path id="패스_11551" data-name="패스 11551" d="M-5430.107-332.62a.782.782,0,0,0-.736.788.719.719,0,0,0,.762.71l.749-.039-.025-1.5Z" transform="translate(5433.368 333.487)" fill="none" stroke="#fff" stroke-linecap="round" stroke-linejoin="round" stroke-width="1"/>
            <line id="선_163" data-name="선 163" y1="0.126" x2="2.42" transform="translate(0.056 3.315)" fill="none" stroke="#fff" stroke-linecap="round" stroke-linejoin="round" stroke-width="1"/>
            <line id="선_164" data-name="선 164" x1="2.42" y2="0.126" transform="translate(0 0.002)" fill="none" stroke="#fff" stroke-linecap="round" stroke-linejoin="round" stroke-width="1"/>
          </g>
        </g>
      </g>
      <g id="그룹_14241" data-name="그룹 14241" transform="translate(6.185 0.244)">
        <circle id="타원_51" data-name="타원 51" cx="0.749" cy="0.749" r="0.749" transform="translate(6.006 0.823)" fill="#fff" stroke="#fff" stroke-width="1"/>
        <path id="패스_11552" data-name="패스 11552" d="M-5334.095-347.07a1.648,1.648,0,0,1-.281-.838,1.657,1.657,0,0,1,1.565-1.743,1.656,1.656,0,0,1,1.743,1.565,1.657,1.657,0,0,1-1.565,1.743" transform="translate(5337.904 349.654)" fill="none" stroke="#fff" stroke-linecap="round" stroke-linejoin="round" stroke-width="1"/>
        <path id="패스_11553" data-name="패스 11553" d="M-5310.419-338.559a.75.75,0,0,0-.708.789.75.75,0,0,0,.789.708l.749-.04-.081-1.5Z" transform="translate(5316.387 339.423)" fill="none" stroke="#fff" stroke-linecap="round" stroke-linejoin="round" stroke-width="1"/>
        <path id="패스_11554" data-name="패스 11554" d="M-5376.614-349.621l-3.526.19a1.657,1.657,0,0,0-1.565,1.743,1.656,1.656,0,0,0,1.587,1.566v.008l3.682-.2" transform="translate(5381.708 349.623)" fill="none" stroke="#fff" stroke-linecap="round" stroke-linejoin="round" stroke-width="1"/>
      </g>
    </g>
    <g id="그룹_14243" data-name="그룹 14243" transform="translate(8.484 41.982)">
      <circle id="타원_52" data-name="타원 52" cx="0.749" cy="0.749" r="0.749" transform="translate(6.007 0.823)" fill="#fff" stroke="#fff" stroke-width="1"/>
      <path id="패스_11555" data-name="패스 11555" d="M-5399.773-451.44a1.653,1.653,0,0,1-.281-.838,1.657,1.657,0,0,1,1.565-1.743,1.656,1.656,0,0,1,1.743,1.565,1.657,1.657,0,0,1-1.565,1.743" transform="translate(5403.583 454.024)" fill="none" stroke="#fff" stroke-linecap="round" stroke-linejoin="round" stroke-width="1"/>
      <path id="패스_11556" data-name="패스 11556" d="M-5376.1-442.929a.749.749,0,0,0-.708.789.75.75,0,0,0,.789.708l.748-.04-.081-1.5Z" transform="translate(5382.066 443.793)" fill="none" stroke="#fff" stroke-linecap="round" stroke-linejoin="round" stroke-width="1"/>
      <path id="패스_11557" data-name="패스 11557" d="M-5442.294-453.991l-3.526.19a1.657,1.657,0,0,0-1.565,1.743,1.656,1.656,0,0,0,1.587,1.566v.008l3.682-.2" transform="translate(5447.388 453.993)" fill="none" stroke="#fff" stroke-linecap="round" stroke-linejoin="round" stroke-width="1"/>
    </g>
    <g id="그룹_14244" data-name="그룹 14244" transform="translate(8.568 25.973)">
      <circle id="타원_53" data-name="타원 53" cx="0.749" cy="0.749" r="0.749" transform="translate(6.01 0.849)" fill="#fff" stroke="#fff" stroke-width="1"/>
      <path id="패스_11558" data-name="패스 11558" d="M-5398.625-666.336a1.65,1.65,0,0,1-.267-.842,1.657,1.657,0,0,1,1.595-1.717,1.657,1.657,0,0,1,1.716,1.594,1.656,1.656,0,0,1-1.594,1.717" transform="translate(5402.421 668.896)" fill="none" stroke="#fff" stroke-linecap="round" stroke-linejoin="round" stroke-width="1"/>
      <path id="패스_11559" data-name="패스 11559" d="M-5374.913-657.462a.749.749,0,0,0-.721.776.749.749,0,0,0,.776.721l.749-.028-.055-1.5Z" transform="translate(5380.896 658.34)" fill="none" stroke="#fff" stroke-linecap="round" stroke-linejoin="round" stroke-width="1"/>
      <path id="패스_11560" data-name="패스 11560" d="M-5441.135-668.881l-3.529.13a1.657,1.657,0,0,0-1.594,1.717,1.656,1.656,0,0,0,1.561,1.592v.008l3.685-.136" transform="translate(5446.26 668.882)" fill="none" stroke="#fff" stroke-linecap="round" stroke-linejoin="round" stroke-width="1"/>
    </g>
  </g>
</svg>
